<?xml version="1.0" encoding="UTF-8"?>
<svg version="1.1" xmlns="http://www.w3.org/2000/svg" width="300" height="168">
<path d="M0 0 C99 0 198 0 300 0 C300 55.44 300 110.88 300 168 C201 168 102 168 0 168 C0 112.56 0 57.12 0 0 Z " fill="#FCFCFC" transform="translate(0,0)"/>
<path d="M0 0 C1.17502075 -0.00574036 1.17502075 -0.00574036 2.3737793 -0.01159668 C4.03126307 -0.01431279 5.68878992 -0.00697255 7.34619141 0.00976562 C9.83988501 0.03095167 12.33062117 0.0100771 14.82421875 -0.015625 C26.9951298 -0.03651751 40.33504098 0.99320448 49.875 9.53125 C58.79922877 19.80022557 59.70786993 31.3651957 59.0390625 44.40136719 C58.35145274 53.32801531 55.48042238 61.47372655 49.875 68.53125 C49.215 68.53125 48.555 68.53125 47.875 68.53125 C47.875 69.19125 47.875 69.85125 47.875 70.53125 C46.23785734 71.50435536 44.58968395 72.45890722 42.9375 73.40625 C42.02097656 73.93992187 41.10445312 74.47359375 40.16015625 75.0234375 C32.98944422 78.31463232 25.82622028 78.82123204 18.02734375 78.7265625 C16.68138878 78.72231766 16.68138878 78.72231766 15.3082428 78.71798706 C12.47618586 78.70689979 9.64445939 78.68181747 6.8125 78.65625 C4.87825981 78.64620537 2.94401461 78.63708213 1.00976562 78.62890625 C-3.7019479 78.60699814 -8.41341816 78.57254901 -13.125 78.53125 C-13.24083441 68.95203318 -13.32968465 59.37305729 -13.38406086 49.793293 C-13.4101585 45.34501667 -13.44555889 40.89721937 -13.50219727 36.44921875 C-13.55651218 32.15684043 -13.58641928 27.86492291 -13.59938622 23.57222748 C-13.60862715 21.93430068 -13.62667292 20.29639921 -13.65365028 18.65866852 C-13.68993624 16.36466425 -13.69494592 14.07256524 -13.69262695 11.77832031 C-13.70373001 10.47260071 -13.71483307 9.1668811 -13.72627258 7.82159424 C-13.125 4.53125 -13.125 4.53125 -10.8243866 2.11065674 C-7.23230274 0.00893427 -4.04849001 -0.04413421 0 0 Z " fill="#040404" transform="translate(16.125,67.46875)"/>
<path d="M0 0 C0.76809998 -0.01253311 1.53619995 -0.02506622 2.32757568 -0.03797913 C3.54649506 -0.01809181 3.54649506 -0.01809181 4.79003906 0.00219727 C6.07349213 -0.00142067 6.07349213 -0.00142067 7.38287354 -0.00511169 C9.18823898 -0.00413541 10.99363516 0.00920603 12.79882812 0.03417969 C15.53393753 0.06833222 18.26578223 0.05486709 21.00097656 0.03540039 C40.33281415 0.04788959 40.33281415 0.04788959 48.49707031 6.88500977 C49.42326172 8.02776367 49.42326172 8.02776367 50.36816406 9.19360352 C51.00882812 9.95801758 51.64949219 10.72243164 52.30957031 11.51000977 C56.51131519 17.46705276 55.38419878 26.60701143 54.80566406 33.63110352 C53.42468284 40.49868582 49.67071327 44.15813309 44.21972656 48.31860352 C39.50121215 50.88400941 34.36242617 50.75292353 29.09472656 50.72875977 C27.97275879 50.72626221 26.85079102 50.72376465 25.69482422 50.72119141 C24.28765137 50.7120874 22.88047852 50.7029834 21.43066406 50.69360352 C14.68628906 50.66266602 14.68628906 50.66266602 7.80566406 50.63110352 C7.80566406 59.87110352 7.80566406 69.11110352 7.80566406 78.63110352 C1.86566406 78.63110352 -4.07433594 78.63110352 -10.19433594 78.63110352 C-10.32995277 69.19947442 -10.44000218 59.768494 -10.50520897 50.33611012 C-10.53650699 45.95612648 -10.57895027 41.57684508 -10.64697266 37.19726562 C-10.71222222 32.96969911 -10.74805349 28.74280746 -10.7635994 24.51477623 C-10.77467594 22.90276146 -10.79630694 21.29078317 -10.82871628 19.67905617 C-10.87235927 17.41853016 -10.87826754 15.16078266 -10.87548828 12.89990234 C-10.88881195 11.61416824 -10.90213562 10.32843414 -10.91586304 9.0037384 C-9.76096043 3.6053759 -5.79416409 0.00835335 0 0 Z " fill="#050505" transform="translate(244.1943359375,67.368896484375)"/>
<path d="M0 0 C0.72805847 -0.00938095 1.45611694 -0.0187619 2.20623779 -0.02842712 C2.97510315 -0.01719315 3.74396851 -0.00595917 4.53613281 0.00561523 C5.3473761 0.00416 6.15861938 0.00270477 6.9944458 0.00120544 C8.70564372 0.0028594 10.41685729 0.01436421 12.12792969 0.03515625 C14.71778228 0.06397006 17.30556551 0.05578273 19.89550781 0.04272461 C41.55023858 0.06923762 41.55023858 0.06923762 49.51660156 7.79077148 C54.79696697 13.92551962 55.52452964 19.43235329 55.24707031 27.45092773 C54.60951616 34.9953186 52.04691912 41.35911264 46.73925781 46.81420898 C38.88115892 51.63622421 29.88440527 50.73996747 20.98925781 50.62670898 C19.62858732 50.61665876 18.26790964 50.60753652 16.90722656 50.59936523 C13.60115987 50.57591795 10.29518532 50.54005093 6.98925781 50.50170898 C6.98925781 59.74170898 6.98925781 68.98170898 6.98925781 78.50170898 C1.37925781 78.50170898 -4.23074219 78.50170898 -10.01074219 78.50170898 C-10.14627842 68.9224251 -10.25636199 59.34377756 -10.32161522 49.76375198 C-10.35293317 45.31536499 -10.39541302 40.86766772 -10.46337891 36.41967773 C-10.52855712 32.12727837 -10.56444474 27.83554247 -10.58000565 23.54268646 C-10.59109498 21.90472719 -10.61275075 20.2668044 -10.64512253 18.6291275 C-10.68867031 16.33487935 -10.69467772 14.04337402 -10.69189453 11.7487793 C-10.7052182 10.44305969 -10.71854187 9.13734009 -10.73226929 7.79205322 C-10.01074219 4.50170898 -10.01074219 4.50170898 -7.21884155 2.0801239 C-4.47089697 0.72810944 -2.97746742 0.00078337 0 0 Z " fill="#050505" transform="translate(94.0107421875,67.498291015625)"/>
<path d="M0 0 C0 0.66 0 1.32 0 2 C0.721875 2.20625 1.44375 2.4125 2.1875 2.625 C7.55441007 5.2488227 9.91967681 9.23119278 11.8125 14.6875 C12.64669187 17.35599223 13 19.16972918 13 22 C0.10057767 22.8612374 0.10057767 22.8612374 -3.5625 19.75 C-4.366875 18.8425 -5.17125 17.935 -6 17 C-9.93418294 12.6969874 -12.97435434 11.27430304 -18.84375 10.7421875 C-23.65346387 10.56360901 -27.16624641 10.64062345 -31.625 12.5625 C-34.52486881 15.53868115 -35.22332873 17.96130938 -36 22 C-35.01 22.33 -34.02 22.66 -33 23 C-32.67 23.66 -32.34 24.32 -32 25 C-25.2800909 27.9894175 -18.03774597 29.48739352 -10.875 31 C7.50244073 34.95396312 7.50244073 34.95396312 12.94921875 42.2265625 C14.53871992 44.90921502 14.87977187 46.87406864 15 50 C15.06058594 50.83789062 15.12117188 51.67578125 15.18359375 52.5390625 C15.52025057 59.94551247 14.4296425 65.09056296 9.4921875 70.71875 C0.28586818 79.45404833 -12.8532393 79.4003768 -24.83203125 79.2109375 C-33.73974649 78.88745625 -41.24311691 75.8587289 -48 70 C-52.2276077 65.11369988 -52.97830457 59.21531389 -54 53 C-48.06 53 -42.12 53 -36 53 C-35.01 55.31 -34.02 57.62 -33 60 C-26.78898853 65.13083556 -20.67939001 65.32953649 -12.88671875 65.30078125 C-8.85109531 64.88029004 -7.05886687 63.57588789 -4 61 C-3.34 61 -2.68 61 -2 61 C-2.061875 59.7625 -2.12375 58.525 -2.1875 57.25 C-2.22230469 56.55390625 -2.25710937 55.8578125 -2.29296875 55.140625 C-3.38066858 51.84747855 -5.0929607 50.84543725 -8 49 C-10.80189647 47.91977674 -13.65242284 47.16852357 -16.5625 46.4375 C-17.36026855 46.22552979 -18.15803711 46.01355957 -18.97998047 45.79516602 C-23.51122231 44.60001787 -28.06312137 43.50951235 -32.625 42.4375 C-40.09077759 40.56074376 -46.39821838 38.22941215 -50.93359375 31.6796875 C-53.55213588 25.09976112 -53.30080329 16.21576883 -50.66796875 9.70703125 C-46.95510762 3.68124024 -41.66602001 0.26168536 -35 -2 C-23.60882798 -4.00855438 -10.80992313 -4.56298263 0 0 Z " fill="#060606" transform="translate(208,69)"/>
<path d="M0 0 C1.68117668 0.0001133 1.68117668 0.0001133 3.39631653 0.00022888 C4.59544174 0.00539017 5.79456696 0.01055145 7.0300293 0.01586914 C8.26593307 0.01728409 9.50183685 0.01869904 10.77519226 0.02015686 C14.0483315 0.02479921 17.32142092 0.03377228 20.59454346 0.04486084 C23.93957053 0.05512135 27.28459978 0.05957908 30.62963867 0.06469727 C37.18371471 0.07486493 43.73766764 0.09444201 50.29174805 0.11352539 C50.29174805 12.32352539 50.29174805 24.53352539 50.29174805 37.11352539 C42.46263896 37.18251558 34.63459114 37.24221678 26.80541992 37.27832031 C24.14378381 37.29167706 21.48263519 37.31382353 18.82104492 37.33984375 C14.98830053 37.37636654 11.15588515 37.39328431 7.32299805 37.40649414 C6.13935669 37.421978 4.95571533 37.43746185 3.73620605 37.45341492 C-3.5137367 37.45488096 -9.87732937 37.18117118 -15.7668457 32.46508789 C-20.49737833 26.5418714 -20.49737833 26.5418714 -20.70825195 22.11352539 C-20.76883789 21.43290039 -20.82942383 20.75227539 -20.8918457 20.05102539 C-21.20765976 14.38551266 -20.29718601 10.55276074 -16.70825195 6.11352539 C-11.67253818 0.78808562 -7.10787828 -0.01604487 0 0 Z " fill="#EC1D23" transform="translate(213.708251953125,19.886474609375)"/>
<path d="M0 0 C23 0 23 0 31 4 C36.16735983 9.16735983 37.25976946 14.82287701 37.32226562 21.890625 C37.31904297 22.71046875 37.31582031 23.5303125 37.3125 24.375 C37.32861328 25.18710938 37.34472656 25.99921875 37.36132812 26.8359375 C37.3668506 33.72798969 36.16190532 39.29761835 31.75 44.8125 C21.60304733 52.88393962 14.03597329 50 0 50 C0 33.5 0 17 0 0 Z " fill="#FCFCFC" transform="translate(20,82)"/>
<path d="M0 0 C3.8775 -0.04125 7.755 -0.0825 11.75 -0.125 C12.96655273 -0.14320801 14.18310547 -0.16141602 15.43652344 -0.18017578 C16.40106445 -0.1851709 17.36560547 -0.19016602 18.359375 -0.1953125 C19.34389648 -0.20578613 20.32841797 -0.21625977 21.34277344 -0.22705078 C24.05973111 0.00510382 25.68112513 0.60963727 28 2 C28 2.66 28 3.32 28 4 C28.61359375 4.25523438 29.2271875 4.51046875 29.859375 4.7734375 C33.48562844 6.85125425 34.67655011 10.15181495 36 14 C36.9598717 19.55881743 35.68382599 24.09507664 33 29 C29.27507713 33.42963801 25.39444431 36.68180135 19.45288086 37.23876953 C16.50310239 37.29484033 13.57463974 37.26114324 10.625 37.1875 C5.365625 37.0946875 5.365625 37.0946875 0 37 C0 24.79 0 12.58 0 0 Z " fill="#8DD7F7" transform="translate(264,20)"/>
<path d="M0 0 C0.79962158 0.00249756 1.59924316 0.00499512 2.4230957 0.00756836 C3.42171631 0.01667236 4.42033691 0.02577637 5.44921875 0.03515625 C10.24453125 0.06609375 10.24453125 0.06609375 15.13671875 0.09765625 C15.13671875 12.30765625 15.13671875 24.51765625 15.13671875 37.09765625 C12.00171875 37.15953125 8.86671875 37.22140625 5.63671875 37.28515625 C4.17975586 37.32612427 4.17975586 37.32612427 2.69335938 37.36791992 C-3.92393405 37.4305123 -9.57332841 36.73211564 -14.921875 32.44921875 C-19.65240763 26.52600225 -19.65240763 26.52600225 -19.86328125 22.09765625 C-19.92386719 21.41703125 -19.98445312 20.73640625 -20.046875 20.03515625 C-20.36268905 14.36964352 -19.4522153 10.5368916 -15.86328125 6.09765625 C-11.11005373 1.07095537 -6.75215671 -0.0435623 0 0 Z " fill="#79787A" transform="translate(212.86328125,19.90234375)"/>
<path d="M0 0 C4.25654438 2.54148579 6.84489013 5.86404374 8.5625 10.5 C9.57247801 16.70553794 8.80934504 22.05367929 5.5625 27.5 C1.67943299 31.55748373 -1.5801167 34.30162359 -7.36328125 34.703125 C-19.09491858 34.8655006 -19.09491858 34.8655006 -23.4375 31.5 C-28.25508973 25.91687546 -29.76205385 21.35728194 -29.64453125 13.99609375 C-29.20087383 8.64709202 -26.79981769 5.64153887 -22.9375 2.1875 C-16.76483888 -2.96992081 -7.28629742 -3.15646854 0 0 Z " fill="#797A7B" transform="translate(180.4375,23.5)"/>
<path d="M0 0 C3.50625 -0.0825 7.0125 -0.165 10.625 -0.25 C11.71893066 -0.28641602 12.81286133 -0.32283203 13.93994141 -0.36035156 C19.77121867 -0.42667686 23.51640072 -0.14986859 28 4 C30.72306491 7.97441555 30.69694945 12.34537333 30 17 C28.20606332 19.87029869 27.01736724 21.49131638 24 23 C25.45668783 25.96783129 27.01232086 28.86415313 28.625 31.75 C29.07101563 32.54921875 29.51703125 33.3484375 29.9765625 34.171875 C30.31429687 34.77515625 30.65203125 35.3784375 31 36 C27.86970337 36.50084746 25.11238973 36.67528195 22 36 C19.4109047 33.67144259 17.7446212 30.99159636 16 28 C14.29107501 24.68539295 14.29107501 24.68539295 10.875 24.3125 C9.92625 24.209375 8.9775 24.10625 8 24 C8 27.96 8 31.92 8 36 C5.36 36 2.72 36 0 36 C0 24.12 0 12.24 0 0 Z " fill="#7D7D7E" transform="translate(42,22)"/>
<path d="M0 0 C3.17625 -0.0825 6.3525 -0.165 9.625 -0.25 C10.6145166 -0.28641602 11.6040332 -0.32283203 12.62353516 -0.36035156 C18.26203341 -0.43101801 21.57852123 0.14430288 26 4 C28.40943467 7.41984276 29.24719111 9.95135056 28.9375 14.0625 C28.25840686 17.92299685 26.84355487 20.23768956 24 23 C20.57448448 25.20704355 17.77164468 25.21242706 13.75 25.125 C12.67234375 25.10695313 11.5946875 25.08890625 10.484375 25.0703125 C9.66453125 25.04710938 8.8446875 25.02390625 8 25 C8 28.63 8 32.26 8 36 C5.36 36 2.72 36 0 36 C0 24.12 0 12.24 0 0 Z " fill="#767678" transform="translate(118,22)"/>
<path d="M0 0 C1.21171875 -0.02578125 2.4234375 -0.0515625 3.671875 -0.078125 C7.5248711 0.27520652 9.93175572 1.31605395 13.25 3.25 C13.25 6.76716303 12.42554415 7.62121748 10.25 10.25 C9.63125 9.92 9.0125 9.59 8.375 9.25 C3.93924164 7.83055732 -0.14608025 7.39714273 -4.75 8.25 C-7.52159589 9.98070766 -8.10451104 11.23327023 -9.75 14.25 C-10.47351726 18.75188515 -10.09044352 20.65696936 -7.8125 24.625 C-6.3518668 26.50014941 -6.3518668 26.50014941 -4.75 28.25 C-3.10659133 28.34854655 -1.4588539 28.37972411 0.1875 28.375 C1.08339844 28.37757812 1.97929687 28.38015625 2.90234375 28.3828125 C5.27155555 28.40421413 5.27155555 28.40421413 7.25 27.25 C7.90555119 24.72266765 7.90555119 24.72266765 8.25 22.25 C5.61 22.25 2.97 22.25 0.25 22.25 C0.25 19.94 0.25 17.63 0.25 15.25 C5.2 15.25 10.15 15.25 15.25 15.25 C15.25 20.86 15.25 26.47 15.25 32.25 C7.82757605 36.90720719 0.63313335 37.51086585 -7.96484375 35.8125 C-12.78988177 34.12320879 -15.37790583 30.56289848 -17.75 26.25 C-19.53201348 20.90395956 -19.23900988 15.94715192 -17.6875 10.5625 C-13.40391233 3.23894689 -8.3603302 0.10582696 0 0 Z " fill="#797A7C" transform="translate(18.75,21.75)"/>
<path d="M0 0 C3.93754535 -0.02690805 7.87490782 -0.0467945 11.8125 -0.0625 C12.93205078 -0.07087891 14.05160156 -0.07925781 15.20507812 -0.08789062 C16.81479492 -0.09272461 16.81479492 -0.09272461 18.45703125 -0.09765625 C19.9416687 -0.10551147 19.9416687 -0.10551147 21.45629883 -0.11352539 C24.62626407 0.02795017 26.42770607 0.40616089 28.66015625 2.72265625 C31.09058775 6.85368121 30.63887469 11.36300631 30 16 C28.19881522 19.00197464 27.09667268 20.45166366 24 22 C22.18658158 22.08471364 20.37005839 22.10721083 18.5546875 22.09765625 C16.94013672 22.09282227 16.94013672 22.09282227 15.29296875 22.08789062 C14.16503906 22.07951172 13.03710938 22.07113281 11.875 22.0625 C10.73933594 22.05798828 9.60367188 22.05347656 8.43359375 22.04882812 C5.62237353 22.03701628 2.81118028 22.01908041 0 22 C0 14.74 0 7.48 0 0 Z " fill="#F9F9F9" transform="translate(101,82)"/>
<path d="M0 0 C2.64 0 5.28 0 8 0 C8.01981934 0.77714355 8.03963867 1.55428711 8.06005859 2.35498047 C8.15507009 5.86200691 8.26484559 9.36841794 8.375 12.875 C8.4059375 14.09832031 8.436875 15.32164063 8.46875 16.58203125 C8.50742188 17.74863281 8.54609375 18.91523437 8.5859375 20.1171875 C8.6173584 21.19597168 8.6487793 22.27475586 8.68115234 23.38623047 C8.74676322 26.15761654 8.74676322 26.15761654 11 28 C15.08259838 28.57471477 15.08259838 28.57471477 19 28 C21.580327 24.44898233 22.39003973 21.8365777 22.51171875 17.48046875 C22.54716797 16.45888672 22.58261719 15.43730469 22.61914062 14.38476562 C22.64169922 13.32966797 22.66425781 12.27457031 22.6875 11.1875 C22.72166016 10.11306641 22.75582031 9.03863281 22.79101562 7.93164062 C22.87326643 5.28786467 22.94249209 2.64441079 23 0 C25.64 0 28.28 0 31 0 C31.14628834 4.16629205 31.23440421 8.33191597 31.3125 12.5 C31.35439453 13.67304687 31.39628906 14.84609375 31.43945312 16.0546875 C31.53040739 22.53063105 31.21770773 27.13643027 27.47338867 32.52929688 C23.92035113 36.0758583 20.43485988 36.29560164 15.5625 36.3125 C14.45003906 36.32925781 13.33757812 36.34601562 12.19140625 36.36328125 C7.46838048 35.82565408 4.02960691 33.63552829 1 30 C-0.09911549 26.70265354 -0.1139456 24.27041255 -0.09765625 20.80078125 C-0.09443359 19.59228516 -0.09121094 18.38378906 -0.08789062 17.13867188 C-0.07951172 15.87603516 -0.07113281 14.61339844 -0.0625 13.3125 C-0.05573242 11.40114258 -0.05573242 11.40114258 -0.04882812 9.45117188 C-0.03702873 6.30073436 -0.02056597 3.15039051 0 0 Z " fill="#79797B" transform="translate(79,22)"/>
<path d="M0 0 C3.89699187 -0.13499972 7.78930653 -0.2341331 11.6875 -0.3125 C13.34168945 -0.3753418 13.34168945 -0.3753418 15.02929688 -0.43945312 C23.05700879 -0.56071766 23.05700879 -0.56071766 25.85009766 1.10009766 C27.20703125 2.45703125 27.20703125 2.45703125 29 5 C29.33 5.33 29.66 5.66 30 6 C30.44615385 14.92307692 30.44615385 14.92307692 28 19 C24.38603517 21.61453376 21.91437293 22.36727999 17.48046875 22.29296875 C16.45888672 22.28330078 15.43730469 22.27363281 14.38476562 22.26367188 C13.32966797 22.23853516 12.27457031 22.21339844 11.1875 22.1875 C9.57584961 22.16719727 9.57584961 22.16719727 7.93164062 22.14648438 C5.28754459 22.11122976 2.64370744 22.05742566 0 22 C0 14.74 0 7.48 0 0 Z " fill="#FCFCFC" transform="translate(252,82)"/>
<path d="M0 0 C4.16507424 1.7585869 6.20882468 3.85201505 8 8 C8.48807148 11.35549146 8.73108696 13.74790855 6.98046875 16.74609375 C4.82724109 19.45877029 3.31181941 20.8960602 0 22 C-4.09699372 22.37935127 -6.27793017 22.44928789 -9.8125 20.25 C-12.39994204 17.58863104 -13.89009969 15.57523772 -14.15234375 11.81640625 C-13.76420305 7.7444574 -13.26610197 5.3951211 -10.9375 1.9375 C-7.12217764 -0.57898921 -4.44391443 -0.82027629 0 0 Z " fill="#FAFAFA" transform="translate(173,29)"/>
<path d="M0 0 C3.63 0.33 7.26 0.66 11 1 C10.34 2.32 9.68 3.64 9 5 C9.99 4.67 10.98 4.34 12 4 C12 4.66 12 5.32 12 6 C14.64 6 17.28 6 20 6 C20 6.33 20 6.66 20 7 C16.04 7 12.08 7 8 7 C8 10.63 8 14.26 8 18 C9.98 18 11.96 18 14 18 C13.34 18.33 12.68 18.66 12 19 C12 19.99 12 20.98 12 22 C13.32 22.33 14.64 22.66 16 23 C16 23.66 16 24.32 16 25 C13.36 24.67 10.72 24.34 8 24 C8 27.96 8 31.92 8 36 C5.36 36 2.72 36 0 36 C0 24.12 0 12.24 0 0 Z " fill="#757577" transform="translate(42,22)"/>
<path d="M0 0 C3.90559061 1.26667804 6.06060687 2.31515306 8 6 C9.1355229 10.61779312 9.60770637 13.54595179 7.375 17.8125 C3.73187572 22.70195627 3.73187572 22.70195627 0 24 C-3.40104914 24.02648792 -6.69201359 23.8147448 -10 23 C-10.33 22.34 -10.66 21.68 -11 21 C-10.67 20.34 -10.34 19.68 -10 19 C-10.66 18.67 -11.32 18.34 -12 18 C-12 14.04 -12 10.08 -12 6 C-4.48046875 5.609375 -4.48046875 5.609375 -2 6 C-0.17578125 8.015625 -0.17578125 8.015625 1 10 C1 9.01 1 8.02 1 7 C1.33 6.34 1.66 5.68 2 5 C1.01 5 0.02 5 -1 5 C-0.67 3.35 -0.34 1.7 0 0 Z " fill="#7D7D7E" transform="translate(138,23)"/>
<path d="M0 0 C11.88 0 23.76 0 36 0 C36 12.21 36 24.42 36 37 C24.12 37 12.24 37 0 37 C0 24.79 0 12.58 0 0 Z M2 1 C2 12.22 2 23.44 2 35 C12.56 35 23.12 35 34 35 C34 23.78 34 12.56 34 1 C23.44 1 12.88 1 2 1 Z " fill="#B5343B" transform="translate(228,20)"/>
<path d="M0 0 C1.5675 -0.061875 3.135 -0.12375 4.75 -0.1875 C6.07257812 -0.23970703 6.07257812 -0.23970703 7.421875 -0.29296875 C10.49044646 0.05573255 11.80214362 0.86291384 14 3 C14.375 5.5625 14.375 5.5625 14 8 C12 10 12 10 9.1796875 10.1953125 C8.08914062 10.17210937 6.99859375 10.14890625 5.875 10.125 C4.77929688 10.10695313 3.68359375 10.08890625 2.5546875 10.0703125 C1.71164063 10.04710937 0.86859375 10.02390625 0 10 C0 6.7 0 3.4 0 0 Z " fill="#F9F9F9" transform="translate(50,29)"/>
<path d="M0 0 C1.60875 -0.04125 3.2175 -0.0825 4.875 -0.125 C5.77992188 -0.14820312 6.68484375 -0.17140625 7.6171875 -0.1953125 C10 0 10 0 12 2 C12.25 5.5 12.25 5.5 12 9 C10 11 10 11 7.6171875 11.1953125 C6.71226562 11.17210937 5.80734375 11.14890625 4.875 11.125 C2.461875 11.063125 2.461875 11.063125 0 11 C0 7.37 0 3.74 0 0 Z " fill="#F8F8F8" transform="translate(126,29)"/>
<path d="M0 0 C6.93 0 13.86 0 21 0 C21 0.33 21 0.66 21 1 C15.06 1 9.12 1 3 1 C2.67 12.55 2.34 24.1 2 36 C8.6 36 15.2 36 22 36 C22 36.33 22 36.66 22 37 C14.74 37 7.48 37 0 37 C0 24.79 0 12.58 0 0 Z " fill="#BACCE0" transform="translate(264,20)"/>
<path d="M0 0 C0.33 0 0.66 0 1 0 C1 10.56 1 21.12 1 32 C3.84625 31.855625 6.6925 31.71125 9.625 31.5625 C10.51010254 31.51939697 11.39520508 31.47629395 12.30712891 31.43188477 C16.60486842 31.20311695 20.76397107 30.81567547 25 30 C25.33 29.01 25.66 28.02 26 27 C27 26 28 25 29 24 C29.33 23.01 29.66 22.02 30 21 C30.66 21 31.32 21 32 21 C32.33 19.68 32.66 18.36 33 17 C33.495 17.99 33.495 17.99 34 19 C32.04609265 24.75317163 29.50712445 28.85074305 24.16503906 32.12451172 C21.5644206 33.17613754 19.59770623 33.2278803 16.796875 33.1953125 C15.91354492 33.19031738 15.03021484 33.18532227 14.12011719 33.18017578 C13.00797852 33.16196777 11.89583984 33.14375977 10.75 33.125 C7.2025 33.08375 3.655 33.0425 0 33 C0 22.11 0 11.22 0 0 Z " fill="#9BD5EE" transform="translate(266,23)"/>
<path d="M0 0 C0.598125 0.309375 1.19625 0.61875 1.8125 0.9375 C4.08956772 2.10209704 4.08956772 2.10209704 7 3 C7.99 2.01 8.98 1.02 10 0 C10.7734375 0.7115625 10.7734375 0.7115625 11.5625 1.4375 C14.66782675 3.42809407 17.36632504 3.65060818 21 4 C21 4.33 21 4.66 21 5 C20.21625 5.061875 19.4325 5.12375 18.625 5.1875 C17.75875 5.455625 16.8925 5.72375 16 6 C14.62533375 8.47636012 14.62533375 8.47636012 14 11 C10.14146168 10.73079965 8.31904314 10.26710588 5.3125 7.75 C3.21907951 5.26052698 1.54883208 2.85311173 0 0 Z " fill="#7F7F80" transform="translate(152,47)"/>
<path d="M0 0 C0.33 0 0.66 0 1 0 C1.44335931 3.02962193 1.49401206 5.18693848 -0.125 7.8515625 C-3.33280342 11.77778023 -6.1627954 14.21280273 -11 16 C-14.96703928 16.35279703 -18.89647329 16.28304344 -22.875 16.1875 C-23.94492187 16.17396484 -25.01484375 16.16042969 -26.1171875 16.14648438 C-28.74531511 16.11128624 -31.37239194 16.06204693 -34 16 C-34 15.67 -34 15.34 -34 15 C-33.410979 14.99589111 -32.82195801 14.99178223 -32.21508789 14.98754883 C-29.49660015 14.9542634 -26.78025184 14.88358808 -24.0625 14.8125 C-23.13630859 14.80669922 -22.21011719 14.80089844 -21.25585938 14.79492188 C-14.47369677 14.58074832 -9.49286324 13.07035444 -4 9 C-1.75334999 6.12147968 -0.66247631 3.57737208 0 0 Z " fill="#E5FBFE" transform="translate(299,42)"/>
<path d="M0 0 C2.97 0.495 2.97 0.495 6 1 C6.33 1.99 6.66 2.98 7 4 C7.61875 4.268125 8.2375 4.53625 8.875 4.8125 C11.95106604 6.53147808 12.67396978 8.81752746 14 12 C14 12.66 14 13.32 14 14 C13.01 13.67 12.02 13.34 11 13 C10.71125 12.236875 10.4225 11.47375 10.125 10.6875 C8.71597956 7.32150672 6.98352447 6.03752891 4 4 C3.01 3.67 2.02 3.34 1 3 C0.67 2.01 0.34 1.02 0 0 Z " fill="#A6D9EE" transform="translate(285,20)"/>
<path d="M0 0 C1.98 0.66 3.96 1.32 6 2 C6 3.32 6 4.64 6 6 C2.34683329 4.75023244 1.21934164 4.32901247 -1 1 C-0.67 0.67 -0.34 0.34 0 0 Z " fill="#858587" transform="translate(5,51)"/>
<path d="M0 0 C-0.33 1.32 -0.66 2.64 -1 4 C-2.65 3.67 -4.3 3.34 -6 3 C-6 2.34 -6 1.68 -6 1 C-4 0 -4 0 0 0 Z " fill="#7D7D7F" transform="translate(86,49)"/>
<path d="M0 0 C0.33 0.99 0.66 1.98 1 3 C1.66 3.33 2.32 3.66 3 4 C0.525 5.485 0.525 5.485 -2 7 C-1.125 1.125 -1.125 1.125 0 0 Z " fill="#818284" transform="translate(3,29)"/>
</svg>
