<?xml version="1.0" encoding="UTF-8"?>
<svg version="1.1" xmlns="http://www.w3.org/2000/svg" width="242" height="208">
<path d="M0 0 C79.86 0 159.72 0 242 0 C242 68.64 242 137.28 242 208 C162.14 208 82.28 208 0 208 C0 139.36 0 70.72 0 0 Z " fill="#FCFDFC" transform="translate(0,0)"/>
<path d="M0 0 C10 0 10 0 13.125 1.0625 C15 3 15 3 15.4375 6.5625 C15 10 15 10 13 12 C13.29289619 15.80765051 14.23070467 17.47151296 17 20 C17 20.66 17 21.32 17 22 C17.66 22 18.32 22 19 22 C19.226875 20.783125 19.45375 19.56625 19.6875 18.3125 C21.07862675 11.95596464 23.56385319 6.01598086 26 0 C27.98 0 29.96 0 32 0 C33.15268129 2.89315371 34.29590743 5.78995487 35.4375 8.6875 C35.76298828 9.50412109 36.08847656 10.32074219 36.42382812 11.16210938 C37.96339769 15.08245663 39.39344895 18.80540049 40 23 C38.35 23 36.7 23 35 23 C34.505 20.03 34.505 20.03 34 17 C31.03 17.33 28.06 17.66 25 18 C24.01 20.475 24.01 20.475 23 23 C19.37 23 15.74 23 12 23 C8 16.25 8 16.25 8 14 C7.01 14 6.02 14 5 14 C5 16.97 5 19.94 5 23 C3.35 23 1.7 23 0 23 C0 15.41 0 7.82 0 0 Z " fill="#0B0B0B" transform="translate(132,153)"/>
<path d="M0 0 C1.40958984 -0.00193359 1.40958984 -0.00193359 2.84765625 -0.00390625 C3.83636719 -0.00003906 4.82507813 0.00382812 5.84375 0.0078125 C7.32681641 0.00201172 7.32681641 0.00201172 8.83984375 -0.00390625 C9.77957031 -0.00261719 10.71929687 -0.00132813 11.6875 0 C12.55568359 0.00112793 13.42386719 0.00225586 14.31835938 0.00341797 C16.34375 0.1328125 16.34375 0.1328125 17.34375 1.1328125 C17.44274523 2.68236809 17.47454524 4.23634923 17.4765625 5.7890625 C17.47849609 7.19865234 17.47849609 7.19865234 17.48046875 8.63671875 C17.47660156 9.62542969 17.47273438 10.61414063 17.46875 11.6328125 C17.47455078 13.11587891 17.47455078 13.11587891 17.48046875 14.62890625 C17.47917969 15.56863281 17.47789063 16.50835937 17.4765625 17.4765625 C17.47543457 18.34474609 17.47430664 19.21292969 17.47314453 20.10742188 C17.34375 22.1328125 17.34375 22.1328125 16.34375 23.1328125 C14.79419441 23.23180773 13.24021327 23.26360774 11.6875 23.265625 C10.27791016 23.26755859 10.27791016 23.26755859 8.83984375 23.26953125 C7.85113281 23.26566406 6.86242187 23.26179688 5.84375 23.2578125 C4.85503906 23.26167969 3.86632812 23.26554687 2.84765625 23.26953125 C1.90792969 23.26824219 0.96820313 23.26695313 0 23.265625 C-0.86818359 23.26449707 -1.73636719 23.26336914 -2.63085938 23.26220703 C-4.65625 23.1328125 -4.65625 23.1328125 -5.65625 22.1328125 C-5.75524523 20.58325691 -5.78704524 19.02927577 -5.7890625 17.4765625 C-5.79035156 16.53683594 -5.79164062 15.59710938 -5.79296875 14.62890625 C-5.78910156 13.64019531 -5.78523438 12.65148437 -5.78125 11.6328125 C-5.78511719 10.64410156 -5.78898437 9.65539062 -5.79296875 8.63671875 C-5.79167969 7.69699219 -5.79039063 6.75726563 -5.7890625 5.7890625 C-5.78793457 4.92087891 -5.78680664 4.05269531 -5.78564453 3.15820312 C-5.53743012 -0.72705485 -3.37439254 0.00438395 0 0 Z " fill="#2F9C41" transform="translate(87.65625,86.8671875)"/>
<path d="M0 0 C1.40958984 -0.00193359 1.40958984 -0.00193359 2.84765625 -0.00390625 C3.83636719 -0.00003906 4.82507813 0.00382812 5.84375 0.0078125 C7.32681641 0.00201172 7.32681641 0.00201172 8.83984375 -0.00390625 C9.77957031 -0.00261719 10.71929687 -0.00132813 11.6875 0 C12.55568359 0.00112793 13.42386719 0.00225586 14.31835938 0.00341797 C16.34375 0.1328125 16.34375 0.1328125 17.34375 1.1328125 C17.44274523 2.68236809 17.47454524 4.23634923 17.4765625 5.7890625 C17.47849609 7.19865234 17.47849609 7.19865234 17.48046875 8.63671875 C17.47660156 9.62542969 17.47273438 10.61414063 17.46875 11.6328125 C17.47455078 13.11587891 17.47455078 13.11587891 17.48046875 14.62890625 C17.47917969 15.56863281 17.47789063 16.50835937 17.4765625 17.4765625 C17.47543457 18.34474609 17.47430664 19.21292969 17.47314453 20.10742188 C17.34375 22.1328125 17.34375 22.1328125 16.34375 23.1328125 C14.79419441 23.23180773 13.24021327 23.26360774 11.6875 23.265625 C10.27791016 23.26755859 10.27791016 23.26755859 8.83984375 23.26953125 C7.85113281 23.26566406 6.86242187 23.26179688 5.84375 23.2578125 C4.85503906 23.26167969 3.86632812 23.26554687 2.84765625 23.26953125 C1.90792969 23.26824219 0.96820313 23.26695313 0 23.265625 C-0.86818359 23.26449707 -1.73636719 23.26336914 -2.63085938 23.26220703 C-4.65625 23.1328125 -4.65625 23.1328125 -5.65625 22.1328125 C-5.75524523 20.58325691 -5.78704524 19.02927577 -5.7890625 17.4765625 C-5.79035156 16.53683594 -5.79164062 15.59710938 -5.79296875 14.62890625 C-5.78910156 13.64019531 -5.78523438 12.65148437 -5.78125 11.6328125 C-5.78511719 10.64410156 -5.78898437 9.65539062 -5.79296875 8.63671875 C-5.79167969 7.69699219 -5.79039063 6.75726563 -5.7890625 5.7890625 C-5.78793457 4.92087891 -5.78680664 4.05269531 -5.78564453 3.15820312 C-5.53743012 -0.72705485 -3.37439254 0.00438395 0 0 Z " fill="#369B46" transform="translate(87.65625,31.8671875)"/>
<path d="M0 0 C7.26 0 14.52 0 22 0 C22 7.59 22 15.18 22 23 C14.74 23 7.48 23 0 23 C0 15.41 0 7.82 0 0 Z " fill="#359B45" transform="translate(110,87)"/>
<path d="M0 0 C7.26 0 14.52 0 22 0 C22 7.59 22 15.18 22 23 C14.74 23 7.48 23 0 23 C0 15.41 0 7.82 0 0 Z " fill="#2F9D41" transform="translate(110,32)"/>
<path d="M0 0 C7.59 0 15.18 0 23 0 C23 7.26 23 14.52 23 22 C15.41 22 7.82 22 0 22 C0 14.74 0 7.48 0 0 Z " fill="#349A45" transform="translate(137,5)"/>
<path d="M0 0 C7.59 0 15.18 0 23 0 C23.020625 3.444375 23.04125 6.88875 23.0625 10.4375 C23.071604 11.52474365 23.08070801 12.6119873 23.09008789 13.73217773 C23.09258545 14.58239502 23.09508301 15.4326123 23.09765625 16.30859375 C23.10551147 17.62041626 23.10551147 17.62041626 23.11352539 18.95874023 C23 21 23 21 22 22 C20.36527118 22.08700342 18.72685945 22.10701063 17.08984375 22.09765625 C16.199021 22.09515869 15.30819824 22.09266113 14.39038086 22.09008789 C13.25093018 22.08098389 12.11147949 22.07187988 10.9375 22.0625 C7.328125 22.041875 3.71875 22.02125 0 22 C0 14.74 0 7.48 0 0 Z " fill="#319A42" transform="translate(137,60)"/>
<path d="M0 0 C7.59 0 15.18 0 23 0 C23.020625 3.444375 23.04125 6.88875 23.0625 10.4375 C23.071604 11.52474365 23.08070801 12.6119873 23.09008789 13.73217773 C23.09258545 14.58239502 23.09508301 15.4326123 23.09765625 16.30859375 C23.10551147 17.62041626 23.10551147 17.62041626 23.11352539 18.95874023 C23 21 23 21 22 22 C20.45044441 22.09899523 18.89646327 22.13079524 17.34375 22.1328125 C15.93416016 22.13474609 15.93416016 22.13474609 14.49609375 22.13671875 C13.50738281 22.13285156 12.51867187 22.12898438 11.5 22.125 C10.51128906 22.12886719 9.52257812 22.13273437 8.50390625 22.13671875 C7.56417969 22.13542969 6.62445313 22.13414063 5.65625 22.1328125 C4.78806641 22.13168457 3.91988281 22.13055664 3.02539062 22.12939453 C1 22 1 22 0 21 C-0.08685603 19.43827255 -0.10702219 17.87270656 -0.09765625 16.30859375 C-0.09515869 15.45837646 -0.09266113 14.60815918 -0.09008789 13.73217773 C-0.08098389 12.64493408 -0.07187988 11.55769043 -0.0625 10.4375 C-0.041875 6.993125 -0.02125 3.54875 0 0 Z " fill="#2E9C40" transform="translate(82,60)"/>
<path d="M0 0 C3.48791684 1.68167419 5.32173907 2.96786381 7.4375 6.1875 C8.25847867 10.29239335 8.15538458 13.96346652 7 18 C4.31692897 21.30224127 2.12850386 23.77019693 -2.20703125 24.23828125 C-9.24770268 24.43884011 -9.24770268 24.43884011 -13 22.25 C-16.64698102 18.14714635 -17.32427743 15.31772536 -17.203125 9.90625 C-16.95749235 7.60108204 -16.28412618 5.92618927 -15 4 C-14.34 4 -13.68 4 -13 4 C-13 3.34 -13 2.68 -13 2 C-8.73944999 -0.84036668 -5.00091856 -0.62997574 0 0 Z " fill="#CA1B20" transform="translate(98,4)"/>
<path d="M0 0 C7.26 0 14.52 0 22 0 C22 7.26 22 14.52 22 22 C14.74 22 7.48 22 0 22 C0 14.74 0 7.48 0 0 Z " fill="#319941" transform="translate(110,60)"/>
<path d="M0 0 C7.26 0 14.52 0 22 0 C22 7.26 22 14.52 22 22 C14.74 22 7.48 22 0 22 C0 14.74 0 7.48 0 0 Z " fill="#319941" transform="translate(110,5)"/>
<path d="M0 0 C2.93423195 1.79646854 4.47205355 2.9441071 6 6 C6.80427112 12.47372329 5.92095999 16.77205334 2 22 C0.1875 22.9375 0.1875 22.9375 -2 23 C-3.134375 23.103125 -4.26875 23.20625 -5.4375 23.3125 C-9.62560893 22.94512202 -11.10451646 21.98064482 -14 19 C-15.54886065 14.35341805 -15.59446571 9.84772629 -15 5 C-11.49577978 -0.95717437 -6.34126862 -1.15579773 0 0 Z " fill="#0D0D0D" transform="translate(198,126)"/>
<path d="M0 0 C12.05357143 -0.66964286 12.05357143 -0.66964286 15.6875 2.375 C18.86287231 5.97947668 19.35166586 8.05734695 19.28125 12.8984375 C18.81551608 16.37850484 17.28243136 18.40913197 15 21 C10.14290305 24.14282744 6.22476493 23 0 23 C0 15.41 0 7.82 0 0 Z " fill="#060606" transform="translate(90,153)"/>
<path d="M0 0 C2.31 0 4.62 0 7 0 C9.64 4.62 12.28 9.24 15 14 C15.33 9.38 15.66 4.76 16 0 C17.65 0 19.3 0 21 0 C21 7.59 21 15.18 21 23 C18.69 23 16.38 23 14 23 C13.67386719 22.33613281 13.34773438 21.67226562 13.01171875 20.98828125 C12.35623047 19.66376953 12.35623047 19.66376953 11.6875 18.3125 C11.04361328 17.00732422 11.04361328 17.00732422 10.38671875 15.67578125 C9.03074206 13.05931918 7.51619608 10.52699347 6 8 C5.67 12.95 5.34 17.9 5 23 C3.35 23 1.7 23 0 23 C0 15.41 0 7.82 0 0 Z " fill="#353535" transform="translate(49,126)"/>
<path d="M0 0 C4.29 0 8.58 0 13 0 C13 1.32 13 2.64 13 4 C10.36 4 7.72 4 5 4 C5 5.65 5 7.3 5 9 C7.64 9 10.28 9 13 9 C13 10.32 13 11.64 13 13 C10.36 13 7.72 13 5 13 C5 14.98 5 16.96 5 19 C7.64 19 10.28 19 13 19 C13 20.32 13 21.64 13 23 C8.71 23 4.42 23 0 23 C0 15.41 0 7.82 0 0 Z " fill="#141414" transform="translate(72,153)"/>
<path d="M0 0 C1.41152344 0.07250977 1.41152344 0.07250977 2.8515625 0.14648438 C3.83640625 0.20255859 4.82125 0.25863281 5.8359375 0.31640625 C6.82851562 0.36861328 7.82109375 0.42082031 8.84375 0.47460938 C11.29978318 0.60449574 13.7554311 0.73946789 16.2109375 0.87890625 C16.2109375 1.53890625 16.2109375 2.19890625 16.2109375 2.87890625 C8.9509375 2.87890625 1.6909375 2.87890625 -5.7890625 2.87890625 C-5.7890625 10.13890625 -5.7890625 17.39890625 -5.7890625 24.87890625 C-10.21052239 26.64749021 -12.02566535 27.12236504 -16.52734375 27.07421875 C-18.12739258 27.06455078 -18.12739258 27.06455078 -19.75976562 27.0546875 C-21.41395508 27.02955078 -21.41395508 27.02955078 -23.1015625 27.00390625 C-24.22369141 26.99488281 -25.34582031 26.98585938 -26.50195312 26.9765625 C-29.26454159 26.95305111 -32.02669182 26.9201878 -34.7890625 26.87890625 C-35.49482712 21.32906609 -35.90598186 15.92160068 -35.8515625 10.31640625 C-35.84253906 9.09824219 -35.83351563 7.88007813 -35.82421875 6.625 C-35.81261719 5.71878906 -35.80101563 4.81257812 -35.7890625 3.87890625 C-34.7990625 3.54890625 -33.8090625 3.21890625 -32.7890625 2.87890625 C-32.7890625 10.13890625 -32.7890625 17.39890625 -32.7890625 24.87890625 C-25.5290625 24.87890625 -18.2690625 24.87890625 -10.7890625 24.87890625 C-10.7890625 17.61890625 -10.7890625 10.35890625 -10.7890625 2.87890625 C-10.1290625 3.20890625 -9.4690625 3.53890625 -8.7890625 3.87890625 C-8.375 6.6015625 -8.375 6.6015625 -8.1640625 9.94140625 C-8.08929688 11.04613281 -8.01453125 12.15085937 -7.9375 13.2890625 C-7.88851562 14.14371094 -7.83953125 14.99835937 -7.7890625 15.87890625 C-7.74007812 14.80769531 -7.69109375 13.73648437 -7.640625 12.6328125 C-7.56560956 11.23564986 -7.4900612 9.83851575 -7.4140625 8.44140625 C-7.383125 7.73435547 -7.3521875 7.02730469 -7.3203125 6.29882812 C-7.21625621 4.48651437 -7.00986358 2.68072637 -6.7890625 0.87890625 C-4.28805676 -0.37159662 -2.78563198 -0.15102824 0 0 Z " fill="#D9F6DF" transform="translate(142.7890625,2.12109375)"/>
<path d="M0 0 C1.32 0 2.64 0 4 0 C4.06058594 1.13179688 4.12117187 2.26359375 4.18359375 3.4296875 C4.26799917 4.91147145 4.35264717 6.3932416 4.4375 7.875 C4.47681641 8.62136719 4.51613281 9.36773437 4.55664062 10.13671875 C4.71573624 14.19986864 4.71573624 14.19986864 6 18 C8.31 18 10.62 18 13 18 C13.495 9.09 13.495 9.09 14 0 C15.32 0 16.64 0 18 0 C18.13539281 2.89740622 18.23426829 5.78845621 18.3125 8.6875 C18.35439453 9.50412109 18.39628906 10.32074219 18.43945312 11.16210938 C18.52829604 15.55094937 18.434451 17.41749169 15.73046875 21.04296875 C12.04241328 23.68633898 12.04241328 23.68633898 9 23.625 C8.360625 23.63789063 7.72125 23.65078125 7.0625 23.6640625 C3.6021031 22.54991956 2.16186779 20.89861447 0 18 C-0.59278623 14.8676388 -0.4753021 11.86088861 -0.3125 8.6875 C-0.28994141 7.85154297 -0.26738281 7.01558594 -0.24414062 6.15429688 C-0.1855061 4.10208851 -0.09583215 2.05080798 0 0 Z " fill="#0C0C0C" transform="translate(141,126)"/>
<path d="M0 0 C4.29 0 8.58 0 13 0 C13 1.32 13 2.64 13 4 C10.36 4 7.72 4 5 4 C5 5.65 5 7.3 5 9 C7.31 9 9.62 9 12 9 C12 10.32 12 11.64 12 13 C9.69 13 7.38 13 5 13 C5 14.98 5 16.96 5 19 C7.64 19 10.28 19 13 19 C13 20.32 13 21.64 13 23 C8.71 23 4.42 23 0 23 C0 15.41 0 7.82 0 0 Z " fill="#070707" transform="translate(114,153)"/>
<path d="M0 0 C0.99773437 0.02320312 1.99546875 0.04640625 3.0234375 0.0703125 C4.52777344 0.09738281 4.52777344 0.09738281 6.0625 0.125 C6.83335938 0.14820312 7.60421875 0.17140625 8.3984375 0.1953125 C8.0684375 1.5153125 7.7384375 2.8353125 7.3984375 4.1953125 C5.0884375 4.1953125 2.7784375 4.1953125 0.3984375 4.1953125 C0.36318618 6.08190124 0.36318618 6.08190124 1.3984375 8.1953125 C3.19299489 9.15668253 4.98790914 10.11745148 6.7890625 11.06640625 C8.3984375 12.1953125 8.3984375 12.1953125 9.6484375 15.1328125 C9.3984375 18.1953125 9.3984375 18.1953125 7.4609375 21.0703125 C3.34161384 23.92861872 1.32804034 23.68019147 -3.6015625 23.1953125 C-4.2615625 22.8653125 -4.9215625 22.5353125 -5.6015625 22.1953125 C-5.6015625 20.5453125 -5.6015625 18.8953125 -5.6015625 17.1953125 C-2.6315625 17.5253125 0.3384375 17.8553125 3.3984375 18.1953125 C2.85769434 14.28339758 2.85769434 14.28339758 0.76953125 12.9296875 C0.13144531 12.60484375 -0.50664063 12.28 -1.1640625 11.9453125 C-2.2984375 11.3678125 -3.4328125 10.7903125 -4.6015625 10.1953125 C-4.796875 4.140625 -4.796875 4.140625 -4.6015625 2.1953125 C-2.6015625 0.1953125 -2.6015625 0.1953125 0 0 Z " fill="#0F0F0F" transform="translate(79.6015625,125.8046875)"/>
<path d="M0 0 C10 0 10 0 13.125 1.0625 C15 3 15 3 15.3125 6.6875 C15.1578125 8.3271875 15.1578125 8.3271875 15 10 C14.01 10 13.02 10 12 10 C11.67 8.35 11.34 6.7 11 5 C8.69 4.67 6.38 4.34 4 4 C4.33 5.98 4.66 7.96 5 10 C5.99 10.33 6.98 10.66 8 11 C8 11.66 8 12.32 8 13 C8.66 13.33 9.32 13.66 10 14 C8.35 14 6.7 14 5 14 C5 16.97 5 19.94 5 23 C3.35 23 1.7 23 0 23 C0 15.41 0 7.82 0 0 Z " fill="#0D0D0D" transform="translate(132,153)"/>
<path d="M0 0 C0.33 0 0.66 0 1 0 C1.33 7.92 1.66 15.84 2 24 C1.34 24 0.68 24 0 24 C0 24.66 0 25.32 0 26 C0.66 26 1.32 26 2 26 C2 33.59 2 41.18 2 49 C1.34 49 0.68 49 0 49 C0 41.74 0 34.48 0 27 C-6.93 27 -13.86 27 -21 27 C-21 25.35 -21 23.7 -21 22 C-14.07 22 -7.14 22 0 22 C0 14.74 0 7.48 0 0 Z " fill="#DBF5E0" transform="translate(132,60)"/>
<path d="M0 0 C5.61 0 11.22 0 17 0 C17 1.32 17 2.64 17 4 C15.02 4 13.04 4 11 4 C11 10.27 11 16.54 11 23 C9.35 23 7.7 23 6 23 C6 16.73 6 10.46 6 4 C4.02 4 2.04 4 0 4 C0 2.68 0 1.36 0 0 Z " fill="#181818" transform="translate(163,126)"/>
<path d="M0 0 C5.61 0 11.22 0 17 0 C17 1.32 17 2.64 17 4 C15.02 4 13.04 4 11 4 C11 10.27 11 16.54 11 23 C9.35 23 7.7 23 6 23 C6 16.73 6 10.46 6 4 C4.02 4 2.04 4 0 4 C0 2.68 0 1.36 0 0 Z " fill="#121212" transform="translate(120,126)"/>
<path d="M0 0 C5.61 0 11.22 0 17 0 C17 1.32 17 2.64 17 4 C15.02 4 13.04 4 11 4 C11 10.27 11 16.54 11 23 C9.35 23 7.7 23 6 23 C6 16.73 6 10.46 6 4 C4.02 4 2.04 4 0 4 C0 2.68 0 1.36 0 0 Z " fill="#1C1C1C" transform="translate(91,126)"/>
<path d="M0 0 C4.29 0 8.58 0 13 0 C13 1.32 13 2.64 13 4 C10.03 4 7.06 4 4 4 C4 5.98 4 7.96 4 10 C6.64 10 9.28 10 12 10 C12 11.32 12 12.64 12 14 C9.36 14 6.72 14 4 14 C4 16.97 4 19.94 4 23 C2.68 23 1.36 23 0 23 C0 15.41 0 7.82 0 0 Z " fill="#070707" transform="translate(55,153)"/>
<path d="M0 0 C5.12610405 -0.65439626 5.12610405 -0.65439626 7.6640625 1.24609375 C9.77774621 4.02107617 9.47443544 6.45309024 9.34765625 9.83203125 C9 12 9 12 7.375 14.625 C5 16 5 16 1.8125 15.875 C0.884375 15.58625 -0.04375 15.2975 -1 15 C-2.23184766 12.53630468 -2.16732342 10.8105499 -2.1875 8.0625 C-2.20167969 7.18722656 -2.21585938 6.31195313 -2.23046875 5.41015625 C-2 3 -2 3 0 0 Z " fill="#F1F1F1" transform="translate(190,129)"/>
<path d="M0 0 C1.65 0 3.3 0 5 0 C5 6.27 5 12.54 5 19 C7.97 19 10.94 19 14 19 C14 20.32 14 21.64 14 23 C9.38 23 4.76 23 0 23 C0 15.41 0 7.82 0 0 Z " fill="#0C0C0C" transform="translate(175,153)"/>
<path d="M0 0 C7.59 0 15.18 0 23 0 C23 0.33 23 0.66 23 1 C15.74 1 8.48 1 1 1 C1 8.59 1 16.18 1 24 C0.34 24.33 -0.32 24.66 -1 25 C-1 24.34 -1 23.68 -1 23 C-1.99 23.66 -2.98 24.32 -4 25 C-6.26831055 25.22705078 -6.26831055 25.22705078 -8.88671875 25.1953125 C-9.82451172 25.18886719 -10.76230469 25.18242188 -11.72851562 25.17578125 C-13.19321289 25.15064453 -13.19321289 25.15064453 -14.6875 25.125 C-15.67556641 25.11597656 -16.66363281 25.10695313 -17.68164062 25.09765625 C-20.12133765 25.0740843 -22.56054697 25.04118022 -25 25 C-25 24.67 -25 24.34 -25 24 C-15.1 23.505 -15.1 23.505 -5 23 C-4.67 16.07 -4.34 9.14 -4 2 C-3.34 2.66 -2.68 3.32 -2 4 C-1.34 2.68 -0.68 1.36 0 0 Z " fill="#E2FAE8" transform="translate(109,31)"/>
<path d="M0 0 C3.48791684 1.68167419 5.32173907 2.96786381 7.4375 6.1875 C8.25847867 10.29239335 8.15538458 13.96346652 7 18 C4.31692897 21.30224127 2.12850386 23.77019693 -2.20703125 24.23828125 C-9.26765267 24.4394084 -9.26765267 24.4394084 -13.125 22.125 C-15 20 -15 20 -15 18 C-14.1646875 18.433125 -14.1646875 18.433125 -13.3125 18.875 C-12.549375 19.24625 -11.78625 19.6175 -11 20 C-10.236875 20.391875 -9.47375 20.78375 -8.6875 21.1875 C-5.19321224 22.24391258 -2.54262105 21.69463158 1 21 C0.34 20.01 -0.32 19.02 -1 18 C-0.75 15.875 -0.75 15.875 0 14 C0.66 13.67 1.32 13.34 2 13 C2.33 12.01 2.66 11.02 3 10 C3.66 10 4.32 10 5 10 C5 8.35 5 6.7 5 5 C1.37802806 3.50859979 -2.27566618 2.2125738 -6 1 C-6 1.66 -6 2.32 -6 3 C-9 4 -12 5 -15 6 C-15 5.34 -15 4.68 -15 4 C-14.34 4 -13.68 4 -13 4 C-13 3.34 -13 2.68 -13 2 C-8.73944999 -0.84036668 -5.00091856 -0.62997574 0 0 Z " fill="#C01E22" transform="translate(98,4)"/>
<path d="M0 0 C8.36923077 -0.36923077 8.36923077 -0.36923077 11.5625 1.5 C12.036875 1.995 12.51125 2.49 13 3 C12.125 8.875 12.125 8.875 11 10 C9.48071962 10.07179964 7.95832518 10.08392007 6.4375 10.0625 C5.61121094 10.05347656 4.78492187 10.04445312 3.93359375 10.03515625 C3.29550781 10.02355469 2.65742187 10.01195312 2 10 C2 12.31 2 14.62 2 17 C1.34 17 0.68 17 0 17 C0 11.39 0 5.78 0 0 Z " fill="#323232" transform="translate(117,186)"/>
<path d="M0 0 C1.40958984 -0.00193359 1.40958984 -0.00193359 2.84765625 -0.00390625 C3.83636719 -0.00003906 4.82507813 0.00382812 5.84375 0.0078125 C7.32681641 0.00201172 7.32681641 0.00201172 8.83984375 -0.00390625 C9.77957031 -0.00261719 10.71929687 -0.00132813 11.6875 0 C12.55568359 0.00112793 13.42386719 0.00225586 14.31835938 0.00341797 C16.34375 0.1328125 16.34375 0.1328125 17.34375 1.1328125 C17.44274523 2.68236809 17.47454524 4.23634923 17.4765625 5.7890625 C17.47849609 7.19865234 17.47849609 7.19865234 17.48046875 8.63671875 C17.47660156 9.62542969 17.47273438 10.61414063 17.46875 11.6328125 C17.47455078 13.11587891 17.47455078 13.11587891 17.48046875 14.62890625 C17.47917969 15.56863281 17.47789063 16.50835937 17.4765625 17.4765625 C17.47543457 18.34474609 17.47430664 19.21292969 17.47314453 20.10742188 C17.34375 22.1328125 17.34375 22.1328125 16.34375 23.1328125 C14.79419441 23.23180773 13.24021327 23.26360774 11.6875 23.265625 C10.27791016 23.26755859 10.27791016 23.26755859 8.83984375 23.26953125 C7.85113281 23.26566406 6.86242187 23.26179688 5.84375 23.2578125 C4.85503906 23.26167969 3.86632812 23.26554687 2.84765625 23.26953125 C1.90792969 23.26824219 0.96820313 23.26695313 0 23.265625 C-0.86818359 23.26449707 -1.73636719 23.26336914 -2.63085938 23.26220703 C-4.65625 23.1328125 -4.65625 23.1328125 -5.65625 22.1328125 C-5.75524523 20.58325691 -5.78704524 19.02927577 -5.7890625 17.4765625 C-5.79035156 16.53683594 -5.79164062 15.59710938 -5.79296875 14.62890625 C-5.78910156 13.64019531 -5.78523438 12.65148437 -5.78125 11.6328125 C-5.78511719 10.64410156 -5.78898437 9.65539062 -5.79296875 8.63671875 C-5.79167969 7.69699219 -5.79039063 6.75726563 -5.7890625 5.7890625 C-5.78793457 4.92087891 -5.78680664 4.05269531 -5.78564453 3.15820312 C-5.53743012 -0.72705485 -3.37439254 0.00438395 0 0 Z M-4.65625 2.1328125 C-4.65625 8.7328125 -4.65625 15.3328125 -4.65625 22.1328125 C1.61375 22.1328125 7.88375 22.1328125 14.34375 22.1328125 C15.4920185 19.8362755 15.45936175 18.54968083 15.44140625 16 C15.43890869 15.27409668 15.43641113 14.54819336 15.43383789 13.80029297 C15.42473389 12.87877441 15.41562988 11.95725586 15.40625 11.0078125 C15.385625 8.0790625 15.365 5.1503125 15.34375 2.1328125 C8.74375 2.1328125 2.14375 2.1328125 -4.65625 2.1328125 Z " fill="#4F985C" transform="translate(87.65625,86.8671875)"/>
<path d="M0 0 C6 0 6 0 7.84765625 1.21875 C9.9980541 4.54275481 9.63636522 8.20302083 9 12 C7.3125 14.0625 7.3125 14.0625 5 15 C3.35 15 1.7 15 0 15 C0 10.05 0 5.1 0 0 Z " fill="#F5F5F5" transform="translate(95,157)"/>
<path d="M0 0 C3.375 0.6875 3.375 0.6875 4.375 1.6875 C4.96227569 8.9697186 4.96227569 8.9697186 2.6875 11.75 C-0.24668913 12.93953613 -1.67088797 12.77585706 -4.625 11.6875 C-7.07831002 8.00753497 -7.02007893 6.03336828 -6.625 1.6875 C-3.625 -0.3125 -3.625 -0.3125 0 0 Z " fill="#242424" transform="translate(170.625,191.3125)"/>
<path d="M0 0 C1 1 1 1 1.3125 4.875 C1.25777919 8.68493655 1.25777919 8.68493655 -0.6875 11.0625 C-3.62168913 12.25203613 -5.04588797 12.08835706 -8 11 C-10.31282587 7.53076119 -10.42478586 6.07794425 -10 2 C-7.64880534 -2.28747261 -4.22461819 -0.93880404 0 0 Z " fill="#262626" transform="translate(106,192)"/>
<path d="M0 0 C2.31 0 4.62 0 7 0 C7 1.32 7 2.64 7 4 C7.33 4.33 7.66 4.66 8 5 C8.07226502 6.85287502 8.0838122 8.70833878 8.0625 10.5625 C8.05347656 11.57441406 8.04445313 12.58632812 8.03515625 13.62890625 C8.02355469 14.41136719 8.01195313 15.19382813 8 16 C6.52168779 16.19412181 5.04230684 16.38012131 3.5625 16.5625 C2.73878906 16.66691406 1.91507812 16.77132812 1.06640625 16.87890625 C0.38449219 16.91886719 -0.29742187 16.95882812 -1 17 C-2 16 -2 16 -2.0625 13.4375 C-2.041875 12.633125 -2.02125 11.82875 -2 11 C0.90600261 9.74335022 2.79604584 9 6 9 C6 8.01 6 7.02 6 6 C4.02 6 2.04 6 0 6 C0 6.66 0 7.32 0 8 C-0.66 8 -1.32 8 -2 8 C-1.67 7.4225 -1.34 6.845 -1 6.25 C0.27075898 3.80116138 0.27075898 3.80116138 0 0 Z " fill="#1F1F1F" transform="translate(85,187)"/>
<path d="M0 0 C1.65 0 3.3 0 5 0 C5 7.59 5 15.18 5 23 C3.35 23 1.7 23 0 23 C0 15.41 0 7.82 0 0 Z " fill="#1A1A1A" transform="translate(39,126)"/>
<path d="M0 0 C7.59 0 15.18 0 23 0 C23 6.93 23 13.86 23 21 C22.01 21 21.02 21 20 21 C20.33 14.4 20.66 7.8 21 1 C14.73 1 8.46 1 2 1 C2.33 7.93 2.66 14.86 3 22 C2.01 21.67 1.02 21.34 0 21 C0 14.07 0 7.14 0 0 Z " fill="#489757" transform="translate(82,60)"/>
<path d="M0 0 C2.31 0.33 4.62 0.66 7 1 C8.93069307 7.56435644 8.93069307 7.56435644 9.4375 10.75 C10.08859493 13.3543797 11.0555678 14.22464886 13 16 C13 16.66 13 17.32 13 18 C13.66 18.33 14.32 18.66 15 19 C12.69 19 10.38 19 8 19 C3.42857143 11.71428571 3.42857143 11.71428571 4 7 C2.68 6.67 1.36 6.34 0 6 C0 4.02 0 2.04 0 0 Z " fill="#191919" transform="translate(136,157)"/>
<path d="M0 0 C7.26 0 14.52 0 22 0 C22 7.59 22 15.18 22 23 C14.74 23 7.48 23 0 23 C0 16.07 0 9.14 0 2 C0.33 2 0.66 2 1 2 C1 8.27 1 14.54 1 21 C7.27 20.67 13.54 20.34 20 20 C20.33 13.73 20.66 7.46 21 1 C14.07 1 7.14 1 0 1 C0 0.67 0 0.34 0 0 Z " fill="#459152" transform="translate(110,32)"/>
<path d="M0 0 C3.375 -0.125 3.375 -0.125 7 0 C9 2 9 2 9.1953125 4.3828125 C9.17210937 5.28773438 9.14890625 6.19265625 9.125 7.125 C9.10695312 8.03507813 9.08890625 8.94515625 9.0703125 9.8828125 C9.04710937 10.58148438 9.02390625 11.28015625 9 12 C7.54364629 12.22174933 6.08477044 12.42698698 4.625 12.625 C3.81289062 12.74101562 3.00078125 12.85703125 2.1640625 12.9765625 C1.44992188 12.98429688 0.73578125 12.99203125 0 13 C-0.66 12.34 -1.32 11.68 -2 11 C-1.625 8.375 -1.625 8.375 -1 6 C2.465 5.505 2.465 5.505 6 5 C5.67 4.01 5.34 3.02 5 2 C2.83125748 2.50603992 1.00032373 2.99983813 -1 4 C-0.67 2.68 -0.34 1.36 0 0 Z " fill="#3E3E3E" transform="translate(134,191)"/>
<path d="M0 0 C0.66 0.33 1.32 0.66 2 1 C1.67 2.32 1.34 3.64 1 5 C1 4.34 1 3.68 1 3 C0.01 3.33 -0.98 3.66 -2 4 C-4.00875442 3.72428861 -6.01178687 3.39764263 -8 3 C-10.39073445 6.82517513 -10.55966552 10.59665524 -11 15 C-12.32 15.33 -13.64 15.66 -15 16 C-15.76447876 6.2996139 -15.76447876 6.2996139 -13.125 1.8125 C-8.76686268 -0.71521964 -4.93250055 -0.61110626 0 0 Z " fill="#0E0E0E" transform="translate(198,126)"/>
<path d="M0 0 C3.5625 0.3125 3.5625 0.3125 5.5 1.6875 C6.5625 3.3125 6.5625 3.3125 6.5625 5.3125 C5.7271875 4.8175 5.7271875 4.8175 4.875 4.3125 C2.25965478 3.1815399 0.3818354 3.15587026 -2.4375 3.3125 C-2.4375 4.3025 -2.4375 5.2925 -2.4375 6.3125 C-1.58865234 6.61994141 -1.58865234 6.61994141 -0.72265625 6.93359375 C0.01082031 7.20300781 0.74429688 7.47242188 1.5 7.75 C2.23089844 8.01683594 2.96179688 8.28367188 3.71484375 8.55859375 C5.5625 9.3125 5.5625 9.3125 6.5625 10.3125 C6.27519945 12.65194736 5.94313221 14.9864143 5.5625 17.3125 C-0.71901261 18.52048319 -0.71901261 18.52048319 -3.8125 17.625 C-5.8313922 15.9943563 -6.10010373 14.842972 -6.4375 12.3125 C-5.7775 12.3125 -5.1175 12.3125 -4.4375 12.3125 C-4.025 12.8075 -3.6125 13.3025 -3.1875 13.8125 C-0.66927499 15.97097858 1.35625585 15.52624961 4.5625 15.3125 C4.37064023 13.34868585 4.37064023 13.34868585 3.5625 11.3125 C1.74735295 10.21691185 1.74735295 10.21691185 -0.4375 9.625 C-4.38763123 8.36236877 -4.38763123 8.36236877 -5.4375 7.3125 C-5.625 4.875 -5.625 4.875 -5.4375 2.3125 C-3.4375 0.3125 -3.4375 0.3125 0 0 Z " fill="#252525" transform="translate(73.4375,185.6875)"/>
<path d="M0 0 C1.32 0 2.64 0 4 0 C4 7.26 4 14.52 4 22 C2.68 22 1.36 22 0 22 C0 14.74 0 7.48 0 0 Z " fill="#010101" transform="translate(112,126)"/>
<path d="M0 0 C1.65 0 3.3 0 5 0 C5.8125 2.6875 5.8125 2.6875 6 6 C4.0625 8.875 4.0625 8.875 1 11 C-2.48948063 11.58601965 -5.77238749 11.61380626 -9 10 C-9 8.35 -9 6.7 -9 5 C-6.03 5.33 -3.06 5.66 0 6 C0 4.02 0 2.04 0 0 Z " fill="#181818" transform="translate(83,138)"/>
<path d="M0 0 C2.95183101 2.95183101 3.08663988 5.95511947 4 10 C0.3558226 12.4294516 -1.71241272 12.16179575 -6 12 C-5.77169299 10.37181054 -5.51656424 8.7473651 -5.25 7.125 C-5.11078125 6.22007812 -4.9715625 5.31515625 -4.828125 4.3828125 C-4 2 -4 2 -1.921875 0.6796875 C-1.28765625 0.45539063 -0.6534375 0.23109375 0 0 Z " fill="#151515" transform="translate(164,155)"/>
<path d="M0 0 C1.98 0 3.96 0 6 0 C6.33 0.99 6.66 1.98 7 3 C6.34 3 5.68 3 5 3 C5 3.66 5 4.32 5 5 C4.01 5 3.02 5 2 5 C2.33 5.66 2.66 6.32 3 7 C3.0716735 9.55157655 3.09308442 12.07472971 3.0625 14.625 C3.05798828 15.33140625 3.05347656 16.0378125 3.04882812 16.765625 C3.03703875 18.51045275 3.01910324 20.255237 3 22 C2.01 22 1.02 22 0 22 C0 14.74 0 7.48 0 0 Z " fill="#020202" transform="translate(50,126)"/>
<path d="M0 0 C1.32 0 2.64 0 4 0 C4.05379226 2.95857409 4.09357093 5.91617721 4.125 8.875 C4.14175781 9.71675781 4.15851563 10.55851563 4.17578125 11.42578125 C4.18222656 12.23144531 4.18867188 13.03710938 4.1953125 13.8671875 C4.20578613 14.61081543 4.21625977 15.35444336 4.22705078 16.12060547 C4 18 4 18 2 20 C1.01 19.34 0.02 18.68 -1 18 C-1.2487793 16.12060547 -1.2487793 16.12060547 -1.07421875 13.8671875 C-1.01943359 13.06152344 -0.96464844 12.25585938 -0.90820312 11.42578125 C-0.83537109 10.58402344 -0.76253906 9.74226562 -0.6875 8.875 C-0.5956543 7.60076172 -0.5956543 7.60076172 -0.50195312 6.30078125 C-0.34848609 4.19946335 -0.17602278 2.09954876 0 0 Z " fill="#040404" transform="translate(155,126)"/>
<path d="M0 0 C12.05357143 -0.66964286 12.05357143 -0.66964286 15.75 2.375 C18 5 18 5 18 7 C17.01 7.33 16.02 7.66 15 8 C14.401875 7.54625 13.80375 7.0925 13.1875 6.625 C10.49110388 4.62196288 8.29663801 4.37461796 5 4 C5.66 3.34 6.32 2.68 7 2 C4.03 1.505 4.03 1.505 1 1 C1 8.26 1 15.52 1 23 C0.67 23 0.34 23 0 23 C0 15.41 0 7.82 0 0 Z " fill="#292929" transform="translate(90,153)"/>
<path d="M0 0 C0.66 0 1.32 0 2 0 C2 7.26 2 14.52 2 22 C8.93 22 15.86 22 23 22 C23 22.33 23 22.66 23 23 C15.41 23.33 7.82 23.66 0 24 C-0.63351781 18.2983397 -1.13730071 13.15832862 -1.125 7.5 C-1.12757812 6.2934375 -1.13015625 5.086875 -1.1328125 3.84375 C-1 1 -1 1 0 0 Z " fill="#C9EBCF" transform="translate(108,5)"/>
<path d="M0 0 C0.33 0 0.66 0 1 0 C1 5.61 1 11.22 1 17 C1.66 17 2.32 17 3 17 C3 11.39 3 5.78 3 0 C3.66 0 4.32 0 5 0 C5 6.93 5 13.86 5 21 C3.02 21.33 1.04 21.66 -1 22 C-0.67 14.74 -0.34 7.48 0 0 Z " fill="#D8F6DE" transform="translate(105,88)"/>
<path d="M0 0 C4 0 4 0 5.6875 1.25 C8.99604318 5.6613909 8.43998054 11.79791937 7.71875 17.046875 C6.27790245 20.96222161 2.53984006 23.06689585 -1 25 C-4.875 25.5 -4.875 25.5 -8 25 C-8.66 24.34 -9.32 23.68 -10 23 C-8.98679687 22.85304688 -8.98679687 22.85304688 -7.953125 22.703125 C-4.07796692 22.05353203 -0.81573495 21.49739936 2.5625 19.4375 C4.7259964 15.76896262 5.07553014 12.22213484 5 8 C4.07263207 4.44508961 2.77160662 2.39366027 0 0 Z " fill="#FAE3E0" transform="translate(100,5)"/>
<path d="M0 0 C0.66 0 1.32 0 2 0 C2 6.6 2 13.2 2 20 C2.66 20.33 3.32 20.66 4 21 C3.34 21 2.68 21 2 21 C2 21.66 2 22.32 2 23 C-5.92 23 -13.84 23 -22 23 C-22 22.67 -22 22.34 -22 22 C-14.74 22 -7.48 22 0 22 C0 14.74 0 7.48 0 0 Z " fill="#D8F5DE" transform="translate(132,33)"/>
<path d="M0 0 C0.66 0 1.32 0 2 0 C2 6.27 2 12.54 2 19 C0.68 19 -0.64 19 -2 19 C-2.05382106 16.37472811 -2.09358313 13.75055287 -2.125 11.125 C-2.14175781 10.37863281 -2.15851563 9.63226563 -2.17578125 8.86328125 C-2.1933959 6.90805539 -2.10320189 4.95257979 -2 3 C-1.34 2.34 -0.68 1.68 0 1 C0 0.67 0 0.34 0 0 Z " fill="#010101" transform="translate(99,129)"/>
<path d="M0 0 C6.27 0 12.54 0 19 0 C18.01 0.66 17.02 1.32 16 2 C17.32 2.33 18.64 2.66 20 3 C19.67 3.66 19.34 4.32 19 5 C12.07 4.67 5.14 4.34 -2 4 C-0.68 3.34 0.64 2.68 2 2 C1.34 1.34 0.68 0.68 0 0 Z " fill="#EBFEF0" transform="translate(85,83)"/>
<path d="M0 0 C1.32 0 2.64 0 4 0 C4 6.93 4 13.86 4 21 C3.34 20.34 2.68 19.68 2 19 C1.34 19.66 0.68 20.32 0 21 C0 14.07 0 7.14 0 0 Z " fill="#EAFEEF" transform="translate(133,60)"/>
<path d="M0 0 C0.66 0 1.32 0 2 0 C2.33 3.3 2.66 6.6 3 10 C4.32 9.67 5.64 9.34 7 9 C7.33 6.03 7.66 3.06 8 0 C8.66 0 9.32 0 10 0 C10 3.96 10 7.92 10 12 C3.9453125 12.9765625 3.9453125 12.9765625 2 13 C0 11 0 11 -0.1953125 8.3984375 C-0.17210937 7.40070313 -0.14890625 6.40296875 -0.125 5.375 C-0.10695312 4.37210938 -0.08890625 3.36921875 -0.0703125 2.3359375 C-0.04710937 1.56507813 -0.02390625 0.79421875 0 0 Z " fill="#1C1C1C" transform="translate(146,191)"/>
<path d="M0 0 C3.53571429 0.53571429 3.53571429 0.53571429 5 2 C5.04092937 4.33297433 5.04241723 6.66705225 5 9 C2.625 9.625 2.625 9.625 0 10 C-2 8 -2 8 -2.25 5 C-2 2 -2 2 0 0 Z " fill="#EEEEEE" transform="translate(100,192)"/>
<path d="M0 0 C3.53571429 0.53571429 3.53571429 0.53571429 5 2 C5.04092937 4.33297433 5.04241723 6.66705225 5 9 C2.625 9.625 2.625 9.625 0 10 C-2 8 -2 8 -2.25 5 C-2 2 -2 2 0 0 Z " fill="#EFEFEF" transform="translate(168,192)"/>
<path d="M0 0 C0 1.65 0 3.3 0 5 C-1.47831221 5.19412181 -2.95769316 5.38012131 -4.4375 5.5625 C-5.26121094 5.66691406 -6.08492188 5.77132812 -6.93359375 5.87890625 C-7.61550781 5.91886719 -8.29742187 5.95882812 -9 6 C-10 5 -10 5 -10.0625 2.4375 C-10.041875 1.633125 -10.02125 0.82875 -10 0 C-3.375 -1.125 -3.375 -1.125 0 0 Z " fill="#2E2E2E" transform="translate(93,198)"/>
<path d="M0 0 C0.825 0.495 1.65 0.99 2.5 1.5 C6.75488188 3.32352081 9.42308671 3.23673689 14 3 C14 3.66 14 4.32 14 5 C15.65 5 17.3 5 19 5 C18.67 5.66 18.34 6.32 18 7 C11.07 6.67 4.14 6.34 -3 6 C-2.01 5.67 -1.02 5.34 0 5 C0 3.35 0 1.7 0 0 Z M14 2 C16 3 16 3 16 3 Z " fill="#F1FAEF" transform="translate(86,26)"/>
<path d="M0 0 C3.5 1.5625 3.5 1.5625 6 4 C7.375 7.75 7.375 7.75 8 11 C7.01 10.67 6.02 10.34 5 10 C5 8.35 5 6.7 5 5 C1.37802806 3.50859979 -2.27566618 2.2125738 -6 1 C-6 1.66 -6 2.32 -6 3 C-9 4 -12 5 -15 6 C-15 5.34 -15 4.68 -15 4 C-14.34 4 -13.68 4 -13 4 C-13 3.34 -13 2.68 -13 2 C-8.73138776 -0.8457415 -5.0083563 -0.6153346 0 0 Z " fill="#A7282D" transform="translate(98,4)"/>
<path d="M0 0 C3.80984844 2.77079887 4.06840752 6.62868145 5 11 C3.35 11 1.7 11 0 11 C-0.33 9.02 -0.66 7.04 -1 5 C-1.66 5 -2.32 5 -3 5 C-2.625 3.0625 -2.625 3.0625 -2 1 C-1.34 0.67 -0.68 0.34 0 0 Z " fill="#121212" transform="translate(167,165)"/>
<path d="M0 0 C3.375 -0.125 3.375 -0.125 7 0 C7.66 0.66 8.32 1.32 9 2 C8.625 4.125 8.625 4.125 8 6 C5.36 6 2.72 6 0 6 C0 4.02 0 2.04 0 0 Z " fill="#EBEBEB" transform="translate(119,188)"/>
<path d="M0 0 C4.29 0 8.58 0 13 0 C13 1.32 13 2.64 13 4 C10.36 4 7.72 4 5 4 C5 5.65 5 7.3 5 9 C3.79371992 6.66785852 2.8345262 4.50357861 2 2 C1.34 1.34 0.68 0.68 0 0 Z " fill="#2A2A2A" transform="translate(114,153)"/>
<path d="M0 0 C0.33 0 0.66 0 1 0 C1.04898438 0.78246094 1.09796875 1.56492188 1.1484375 2.37109375 C1.22320312 3.38300781 1.29796875 4.39492187 1.375 5.4375 C1.47941406 6.95150391 1.47941406 6.95150391 1.5859375 8.49609375 C1.72257813 9.32238281 1.85921875 10.14867187 2 11 C2.66 11.33 3.32 11.66 4 12 C4 12.66 4 13.32 4 14 C5.65 14.33 7.3 14.66 9 15 C9 15.33 9 15.66 9 16 C4.75519536 16.33292585 2.64457375 16.43885872 -0.9375 14 C-1.618125 13.34 -2.29875 12.68 -3 12 C-2.67 10.35 -2.34 8.7 -2 7 C-1.67 7 -1.34 7 -1 7 C-0.67 4.69 -0.34 2.38 0 0 Z " fill="#2D2D2D" transform="translate(187,133)"/>
<path d="M0 0 C3.5625 0.3125 3.5625 0.3125 5.5 1.6875 C6.5625 3.3125 6.5625 3.3125 6.5625 5.3125 C5.7271875 4.8175 5.7271875 4.8175 4.875 4.3125 C2.25965478 3.1815399 0.3818354 3.15587026 -2.4375 3.3125 C-2.4375 4.3025 -2.4375 5.2925 -2.4375 6.3125 C-1.1175 6.9725 0.2025 7.6325 1.5625 8.3125 C-0.8125 8.9375 -0.8125 8.9375 -3.4375 9.3125 C-5.4375 7.3125 -5.4375 7.3125 -5.6875 4.8125 C-5.27687842 0.70628418 -3.98752692 0.36250245 0 0 Z " fill="#2B2B2B" transform="translate(73.4375,185.6875)"/>
<path d="M0 0 C0.66 0 1.32 0 2 0 C2 6.93 2 13.86 2 21 C1.34 20.67 0.68 20.34 0 20 C-0.31453274 17.34724276 -0.5138792 14.78726925 -0.625 12.125 C-0.66367188 11.39152344 -0.70234375 10.65804687 -0.7421875 9.90234375 C-0.89367061 6.93219279 -1 3.97424889 -1 1 C-0.67 0.67 -0.34 0.34 0 0 Z " fill="#4E9F5D" transform="translate(158,60)"/>
<path d="M0 0 C6.93 0 13.86 0 21 0 C15.40849923 3.72766718 9.22280211 3.12279748 2.78515625 2.44921875 C2.19605469 2.30097656 1.60695312 2.15273438 1 2 C0.67 1.34 0.34 0.68 0 0 Z " fill="#CBECD1" transform="translate(138,27)"/>
<path d="M0 0 C0.66 0 1.32 0 2 0 C2 6.93 2 13.86 2 21 C1.01 21 0.02 21 -1 21 C-0.67 14.07 -0.34 7.14 0 0 Z " fill="#3D8D4C" transform="translate(103,60)"/>
<path d="M0 0 C2.31 0.33 4.62 0.66 7 1 C6.67 2.65 6.34 4.3 6 6 C4.02 6 2.04 6 0 6 C0 4.02 0 2.04 0 0 Z " fill="#D5D5D5" transform="translate(136,157)"/>
<path d="M0 0 C0.66 0 1.32 0 2 0 C2.66 2.97 3.32 5.94 4 9 C2.02 9 0.04 9 -2 9 C-1.34 6.03 -0.68 3.06 0 0 Z " fill="#D1D1D1" transform="translate(160,158)"/>
<path d="M0 0 C0.66 1.32 1.32 2.64 2 4 C-4.72893954 10.91080278 -4.72893954 10.91080278 -9.5625 11.25 C-13 11 -13 11 -15 9 C-13.98679687 8.85304688 -13.98679687 8.85304688 -12.953125 8.703125 C-7.32558998 7.80726836 -7.32558998 7.80726836 -2.4375 5.0625 C-0.83113946 2.96511417 -0.83113946 2.96511417 0 0 Z " fill="#F8D5D4" transform="translate(105,19)"/>
<path d="M0 0 C0.99 0.495 0.99 0.495 2 1 C2 2.65 2 4.3 2 6 C4.31 6 6.62 6 9 6 C9 6.33 9 6.66 9 7 C6.69 7 4.38 7 2 7 C2 9.31 2 11.62 2 14 C1.34 14 0.68 14 0 14 C0 9.38 0 4.76 0 0 Z " fill="#040404" transform="translate(117,189)"/>
<path d="M0 0 C0.99 0.33 1.98 0.66 3 1 C3 3.64 3 6.28 3 9 C1.68 9.33 0.36 9.66 -1 10 C-1.02689216 8.52093108 -1.04634621 7.04172517 -1.0625 5.5625 C-1.07410156 4.73878906 -1.08570313 3.91507813 -1.09765625 3.06640625 C-1 1 -1 1 0 0 Z " fill="#020202" transform="translate(184,132)"/>
<path d="M0 0 C0.556875 0.28875 1.11375 0.5775 1.6875 0.875 C2.8321875 1.431875 2.8321875 1.431875 4 2 C4.70125 2.391875 5.4025 2.78375 6.125 3.1875 C10.48245965 4.41895599 14.56684136 3.63699755 19 3 C15.13478868 6.36532256 12.39740357 6.50302905 7.41796875 6.36328125 C4.02848778 5.85403774 2.24355094 4.54269107 0 2 C0 1.34 0 0.68 0 0 Z " fill="#A82C31" transform="translate(83,22)"/>
<path d="M0 0 C0.33 0.66 0.66 1.32 1 2 C-0.2065625 1.9690625 -0.2065625 1.9690625 -1.4375 1.9375 C-3.93354885 1.70366379 -3.93354885 1.70366379 -5 3 C-5.04346799 4.99952758 -5.039992 7.00039988 -5 9 C-5 9.99 -5 10.98 -5 12 C-6.5 10.875 -6.5 10.875 -8 9 C-8.39769128 5.81846974 -8.55198782 3.87155972 -6.8125 1.125 C-4.43963721 -0.34781139 -2.74086056 -0.22223194 0 0 Z " fill="#121212" transform="translate(104,191)"/>
<path d="M0 0 C2.31 0 4.62 0 7 0 C6.34 1.32 5.68 2.64 5 4 C2.03 3.505 2.03 3.505 -1 3 C-0.67 2.01 -0.34 1.02 0 0 Z " fill="#868686" transform="translate(85,187)"/>
<path d="M0 0 C1 3 1 3 0.0625 5.1875 C-0.288125 5.785625 -0.63875 6.38375 -1 7 C-1.66 5.02 -2.32 3.04 -3 1 C-5.38564077 1.57584432 -7.66682784 2.22227595 -10 3 C-9.67 2.01 -9.34 1.02 -9 0 C-5.93109813 -1.53445094 -3.29905734 -0.54984289 0 0 Z " fill="#282828" transform="translate(174,192)"/>
<path d="M0 0 C2.0625 0.4375 2.0625 0.4375 4 1 C3.01 1.495 3.01 1.495 2 2 C1.67 2.99 1.34 3.98 1 5 C2.65 5 4.3 5 6 5 C5.67 5.66 5.34 6.32 5 7 C3.35 6.67 1.7 6.34 0 6 C-0.38218767 4.34385343 -0.71395102 2.67542976 -1 1 C-0.67 0.67 -0.34 0.34 0 0 Z " fill="#262626" transform="translate(133,197)"/>
<path d="M0 0 C0 0.99 0 1.98 0 3 C-1.98 3.33 -3.96 3.66 -6 4 C-6 2.68 -6 1.36 -6 0 C-3.50907189 -1.24546405 -2.58919267 -0.7767578 0 0 Z " fill="#DADADA" transform="translate(91,193)"/>
<path d="M0 0 C1.65 0 3.3 0 5 0 C4.67 1.32 4.34 2.64 4 4 C2.35 4 0.7 4 -1 4 C-0.67 2.68 -0.34 1.36 0 0 Z " fill="#E9E9E9" transform="translate(135,198)"/>
<path d="M0 0 C0.33 1.32 0.66 2.64 1 4 C-0.98 4.33 -2.96 4.66 -5 5 C-4.67 3.68 -4.34 2.36 -4 1 C-2.68 0.67 -1.36 0.34 0 0 Z " fill="#EDEDED" transform="translate(90,197)"/>
<path d="M0 0 C2.31 0 4.62 0 7 0 C7 0.99 7 1.98 7 3 C4.69 3 2.38 3 0 3 C0 2.01 0 1.02 0 0 Z " fill="#040404" transform="translate(120,154)"/>
<path d="M0 0 C2.31 0.66 4.62 1.32 7 2 C6.67 2.99 6.34 3.98 6 5 C4.02 5 2.04 5 0 5 C0 3.35 0 1.7 0 0 Z " fill="#0C0C0C" transform="translate(74,143)"/>
<path d="M0 0 C2.0625 0.4375 2.0625 0.4375 4 1 C4 1.99 4 2.98 4 4 C2.02 4.33 0.04 4.66 -2 5 C-1.125 1.125 -1.125 1.125 0 0 Z " fill="#E3E3E3" transform="translate(136,192)"/>
<path d="M0 0 C1.32 0 2.64 0 4 0 C5.04449911 3.13349732 4.93423645 3.98968256 4 7 C3.34 7 2.68 7 2 7 C0.5393715 4.35261084 0 3.10551666 0 0 Z " fill="#0E0E0E" transform="translate(58,136)"/>
<path d="M0 0 C0.8971875 0.309375 0.8971875 0.309375 1.8125 0.625 C1.8125 1.285 1.8125 1.945 1.8125 2.625 C-1.1875 3.625 -4.1875 4.625 -7.1875 5.625 C-7.1875 4.965 -7.1875 4.305 -7.1875 3.625 C-6.5275 3.625 -5.8675 3.625 -5.1875 3.625 C-5.1875 2.965 -5.1875 2.305 -5.1875 1.625 C-2.1875 -0.375 -2.1875 -0.375 0 0 Z " fill="#B6353A" transform="translate(90.1875,4.375)"/>
<path d="M0 0 C4.51720311 -0.36625971 4.51720311 -0.36625971 6.8125 1.375 C8 3 8 3 8 5 C5.03 4.01 2.06 3.02 -1 2 C-0.67 1.34 -0.34 0.68 0 0 Z " fill="#1F1F1F" transform="translate(72,186)"/>
<path d="M0 0 C4.875 0.875 4.875 0.875 6 2 C6.04063832 3.66617115 6.042721 5.33388095 6 7 C5.34 7 4.68 7 4 7 C3.896875 6.360625 3.79375 5.72125 3.6875 5.0625 C3.460625 4.381875 3.23375 3.70125 3 3 C2.01 2.67 1.02 2.34 0 2 C0 1.34 0 0.68 0 0 Z " fill="#151515" transform="translate(74,194)"/>
<path d="M0 0 C2.31 0 4.62 0 7 0 C7.33 0.66 7.66 1.32 8 2 C7.01 3.485 7.01 3.485 6 5 C5.67 4.01 5.34 3.02 5 2 C2.83125748 2.50603992 1.00032373 2.99983813 -1 4 C-0.67 2.68 -0.34 1.36 0 0 Z " fill="#2D2D2D" transform="translate(134,191)"/>
<path d="M0 0 C0 0.33 0 0.66 0 1 C-2.97 1 -5.94 1 -9 1 C-9 0.34 -9 -0.32 -9 -1 C-5.79937313 -2.60031344 -3.27728194 -1.03173691 0 0 Z " fill="#FCDCDC" transform="translate(97,3)"/>
<path d="M0 0 C1.98 0 3.96 0 6 0 C6 0.99 6 1.98 6 3 C4.02 3 2.04 3 0 3 C0 2.01 0 1.02 0 0 Z " fill="#010101" transform="translate(78,163)"/>
<path d="M0 0 C0.33 0 0.66 0 1 0 C1.66 2.64 2.32 5.28 3 8 C2.01 8 1.02 8 0 8 C-0.38063221 5.6739143 -0.71269945 3.33944736 -1 1 C-0.67 0.67 -0.34 0.34 0 0 Z " fill="#111111" transform="translate(165,194)"/>
</svg>
