<?xml version="1.0" encoding="UTF-8"?>
<svg version="1.1" xmlns="http://www.w3.org/2000/svg" width="225" height="225">
<path d="M0 0 C74.25 0 148.5 0 225 0 C225 74.25 225 148.5 225 225 C150.75 225 76.5 225 0 225 C0 150.75 0 76.5 0 0 Z " fill="#004DA0" transform="translate(0,0)"/>
<path d="M0 0 C11.71205235 -0.83657517 11.71205235 -0.83657517 15.12890625 1.3828125 C17.86728722 4.55356941 19.7796798 7.97294336 21 12 C21.66 12 22.32 12 23 12 C23.28230469 11.42765625 23.56460938 10.8553125 23.85546875 10.265625 C24.23316406 9.51796875 24.61085938 8.7703125 25 8 C25.34675781 7.29359375 25.69351563 6.5871875 26.05078125 5.859375 C27.52406114 3.39630646 28.7138365 1.76181407 31 0 C35.54231734 -0.71294398 39.36350702 -0.37848922 44 0 C44 6.93 44 13.86 44 21 C41.03 21 38.06 21 35 21 C34.505 15.555 34.505 15.555 34 10 C33.52691406 10.721875 33.05382813 11.44375 32.56640625 12.1875 C27.46225827 19.35121647 27.46225827 19.35121647 23.7109375 21.015625 C20.96995487 21.29820053 19.51174742 21.16616844 17 20 C14.13719909 16.94774903 12.02705032 13.64999415 10 10 C9.67 13.63 9.34 17.26 9 21 C6.03 21 3.06 21 0 21 C0 14.07 0 7.14 0 0 Z " fill="#E9F4F8" transform="translate(19,102)"/>
<path d="M0 0 C3.375 -0.1875 3.375 -0.1875 7 0 C9.44576827 3.66865241 9.23607254 5.67200343 9 10 C8.67 10.66 8.34 11.32 8 12 C9.32 13.32 10.64 14.64 12 16 C11.34 16 10.68 16 10 16 C10.02356567 16.88522339 10.02356567 16.88522339 10.04760742 17.78833008 C10.10997939 20.46295586 10.14899657 23.13742864 10.1875 25.8125 C10.22520508 27.2056543 10.22520508 27.2056543 10.26367188 28.62695312 C10.27817383 29.9659668 10.27817383 29.9659668 10.29296875 31.33203125 C10.31653442 32.56530151 10.31653442 32.56530151 10.34057617 33.82348633 C9.92566921 36.47502434 9.04470249 37.33263592 7 39 C7.66 39.66 8.32 40.32 9 41 C9.3125 44 9.3125 44 9 47 C4.79188352 49.80541099 2.90079759 48.85569482 -2 48 C-2.66 47.67 -3.32 47.34 -4 47 C-3.38461538 40.47692308 -3.38461538 40.47692308 -1.4375 38.0625 C-0.7259375 37.5365625 -0.7259375 37.5365625 0 37 C-0.99 36.67 -1.98 36.34 -3 36 C-3.0868329 32.541824 -3.14033282 29.08392656 -3.1875 25.625 C-3.21263672 24.64015625 -3.23777344 23.6553125 -3.26367188 22.640625 C-3.27333984 21.69960937 -3.28300781 20.75859375 -3.29296875 19.7890625 C-3.3086792 18.91975098 -3.32438965 18.05043945 -3.34057617 17.15478516 C-3.22818604 16.44370605 -3.1157959 15.73262695 -3 15 C-2.01 14.34 -1.02 13.68 0 13 C-0.515625 12.29875 -1.03125 11.5975 -1.5625 10.875 C-3.30443767 7.39112465 -2.94693195 5.7016431 -2 2 C-1.34 2 -0.68 2 0 2 C0 1.34 0 0.68 0 0 Z " fill="#124A88" transform="translate(75,87)"/>
<path d="M0 0 C4.455 -0.0928125 4.455 -0.0928125 9 -0.1875 C9.91910156 -0.21481201 10.83820313 -0.24212402 11.78515625 -0.27026367 C17.54923449 -0.32773143 21.73747082 0.62588172 27 3 C28 4 28 4 28.25 6.375 C27.95519863 9.47041443 27.23079732 9.99228242 25 12 C25.433125 12.39832031 25.86625 12.79664062 26.3125 13.20703125 C26.869375 13.73683594 27.42625 14.26664063 28 14.8125 C28.556875 15.33457031 29.11375 15.85664062 29.6875 16.39453125 C31 18 31 18 31 21 C27.59881879 21.35662871 24.38900527 21.52299464 21 21 C18.3125 18.125 18.3125 18.125 16 15 C13.64948585 13.92887963 11.55784666 13.50153856 9 13 C9 15.64 9 18.28 9 21 C6.03 21 3.06 21 0 21 C0 14.07 0 7.14 0 0 Z " fill="#EDF5F8" transform="translate(135,102)"/>
<path d="M0 0 C1.47906892 -0.02689216 2.95827483 -0.04634621 4.4375 -0.0625 C5.26121094 -0.07410156 6.08492188 -0.08570312 6.93359375 -0.09765625 C9 0 9 0 10 1 C10.32526705 4.36109285 10.5135946 7.7233399 10.71875 11.09375 C10.6785989 13.89050132 10.6785989 13.89050132 12 15 C16.65088715 15.30523962 16.65088715 15.30523962 21 14 C21.47001033 10.72444392 21.47001033 10.72444392 21.625 6.9375 C21.69976562 5.64714844 21.77453125 4.35679688 21.8515625 3.02734375 C21.90054688 2.02832031 21.94953125 1.02929688 22 0 C23.47906892 -0.02689216 24.95827483 -0.04634621 26.4375 -0.0625 C27.26121094 -0.07410156 28.08492187 -0.08570312 28.93359375 -0.09765625 C31 0 31 0 32 1 C32.1790571 3.07823652 32.26807871 5.16453717 32.3125 7.25 C32.36857422 8.95929688 32.36857422 8.95929688 32.42578125 10.703125 C31.90592722 14.72841674 30.94967714 16.241098 28 19 C21.51463823 21.94465672 13.56500933 22.1182741 6.671875 20.4296875 C3.34412415 19.10138359 2.01465024 18.02197536 0 15 C-0.14221065 12.39754502 -0.18802932 9.90882316 -0.125 7.3125 C-0.11597656 6.61060547 -0.10695313 5.90871094 -0.09765625 5.18554688 C-0.07413704 3.45688475 -0.03826713 1.72839855 0 0 Z " fill="#DDECF6" transform="translate(93,102)"/>
<path d="M0 0 C3.72251948 0.01595365 5.00081595 0.3246095 7.703125 2.95703125 C9.75425521 5.81843618 11.61109435 8.74108781 13.4375 11.75 C14.42477156 13.09278541 15.42255239 14.42800941 16.4375 15.75 C18.4375 18.75 18.4375 18.75 18.4375 21.75 C17.00166999 21.85836453 15.5634798 21.93576167 14.125 22 C13.32449219 22.04640625 12.52398437 22.0928125 11.69921875 22.140625 C10.95285156 22.01171875 10.20648438 21.8828125 9.4375 21.75 C8.98375 21.1003125 8.53 20.450625 8.0625 19.78125 C6.53040023 17.41681979 6.53040023 17.41681979 3.30078125 17.140625 C2.12902344 17.09421875 0.95726562 17.0478125 -0.25 17 C-1.42949219 16.94328125 -2.60898438 16.8865625 -3.82421875 16.828125 C-5.17966797 16.78945312 -5.17966797 16.78945312 -6.5625 16.75 C-6.871875 17.389375 -7.18125 18.02875 -7.5 18.6875 C-8.5625 20.75 -8.5625 20.75 -9.5625 21.75 C-12.23308851 21.89115161 -14.88682238 21.79247107 -17.5625 21.75 C-16.94731202 18.61975323 -15.91570511 16.50231886 -14.09375 13.89453125 C-13.60519531 13.19005859 -13.11664063 12.48558594 -12.61328125 11.75976562 C-11.84564453 10.67211914 -11.84564453 10.67211914 -11.0625 9.5625 C-10.55074219 8.82580078 -10.03898438 8.08910156 -9.51171875 7.33007812 C-4.74363431 0.49246891 -4.74363431 0.49246891 0 0 Z " fill="#DEE9F0" transform="translate(187.5625,101.25)"/>
<path d="M0 0 C2.97 0 5.94 0 9 0 C9 6.93 9 13.86 9 21 C6.03 21 3.06 21 0 21 C0 14.07 0 7.14 0 0 Z " fill="#FBFEFD" transform="translate(74,102)"/>
<path d="M0 0 C0.66 0 1.32 0 2 0 C2 6.93 2 13.86 2 21 C5.3 20.67 8.6 20.34 12 20 C11.34 21.32 10.68 22.64 10 24 C10.66 24.66 11.32 25.32 12 26 C12.3125 29 12.3125 29 12 32 C7.79188352 34.80541099 5.90079759 33.85569482 1 33 C0.34 32.67 -0.32 32.34 -1 32 C-0.38461538 25.47692308 -0.38461538 25.47692308 1.5625 23.0625 C2.2740625 22.5365625 2.2740625 22.5365625 3 22 C2.01 21.67 1.02 21.34 0 21 C0 14.07 0 7.14 0 0 Z " fill="#245894" transform="translate(72,102)"/>
<path d="M0 0 C1.32 0 2.64 0 4 0 C5 3 5 3 3.6875 5.875 C3.130625 6.90625 2.57375 7.9375 2 9 C1.31471955 10.65910004 0.64108137 12.32332564 0 14 C-0.99 14 -1.98 14 -3 14 C-3.12375 14.61875 -3.2475 15.2375 -3.375 15.875 C-4 18 -4 18 -6 20 C-8.68839385 20.26991906 -11.29141936 20.08737357 -14 20 C-13.35637019 16.57777323 -12.0302073 14.15046485 -10.125 11.25 C-9.61195313 10.45078125 -9.09890625 9.6515625 -8.5703125 8.828125 C-7.79300781 7.92320313 -7.79300781 7.92320313 -7 7 C-6.01 7 -5.02 7 -4 7 C-3.32498714 5.64997428 -2.65850017 4.29565659 -2 2.9375 C-1 1 -1 1 0 0 Z " fill="#F3FAFB" transform="translate(184,103)"/>
<path d="M0 0 C1.4540625 0.0309375 1.4540625 0.0309375 2.9375 0.0625 C3.2675 2.0425 3.5975 4.0225 3.9375 6.0625 C5.9175 6.7225 7.8975 7.3825 9.9375 8.0625 C9.6075 9.0525 9.2775 10.0425 8.9375 11.0625 C7.2875 11.0625 5.6375 11.0625 3.9375 11.0625 C3.9375 13.3725 3.9375 15.6825 3.9375 18.0625 C1.2975 18.0625 -1.3425 18.0625 -4.0625 18.0625 C-4.08934312 15.24993719 -4.10926188 12.43762759 -4.125 9.625 C-4.13337891 8.82255859 -4.14175781 8.02011719 -4.15039062 7.19335938 C-4.1590143 5.14954779 -4.1147815 3.10566098 -4.0625 1.0625 C-3.0625 0.0625 -3.0625 0.0625 0 0 Z " fill="#F9FEFD" transform="translate(140.0625,103.9375)"/>
<path d="M0 0 C5.28 0 10.56 0 16 0 C16.66 1.65 17.32 3.3 18 5 C17.47921875 4.51917969 16.9584375 4.03835937 16.421875 3.54296875 C13.29094187 1.54826135 10.93631779 1.49681589 7.25 1.3125 C5.1875 1.209375 3.125 1.10625 1 1 C1 7.93 1 14.86 1 22 C3.97 22 6.94 22 10 22 C10 17.71 10 13.42 10 9 C14.5 13.5 14.5 13.5 16 17 C15.01 16.67 14.02 16.34 13 16 C12.690625 17.134375 12.38125 18.26875 12.0625 19.4375 C11 23 11 23 10 24 C8.00390625 24.203125 8.00390625 24.203125 5.5625 24.25 C4.75941406 24.27578125 3.95632812 24.3015625 3.12890625 24.328125 C2.42636719 24.21984375 1.72382813 24.1115625 1 24 C-1.08322162 20.87516757 -1.2494731 20.17118109 -1.23046875 16.62109375 C-1.22756836 15.36329102 -1.22756836 15.36329102 -1.22460938 14.08007812 C-1.21236328 13.20802734 -1.20011719 12.33597656 -1.1875 11.4375 C-1.18685547 10.56158203 -1.18621094 9.68566406 -1.18554688 8.78320312 C-1.14049693 2.28099385 -1.14049693 2.28099385 0 0 Z " fill="#0B4790" transform="translate(18,101)"/>
<path d="M0 0 C0.99 0 1.98 0 3 0 C3 2.31 3 4.62 3 7 C2.34 7 1.68 7 1 7 C0.34 7.66 -0.32 8.32 -1 9 C-5.14593542 10.38197847 -8.71555613 9.72039428 -12.9140625 8.9609375 C-15.11732318 8.78471387 -15.11732318 8.78471387 -16.7734375 10.4765625 C-17.38058594 11.23066406 -17.38058594 11.23066406 -18 12 C-18.66 11.67 -19.32 11.34 -20 11 C-20.33 11.66 -20.66 12.32 -21 13 C-21.5625 11.0625 -21.5625 11.0625 -22 9 C-21.67 8.67 -21.34 8.34 -21 8 C-20.63239269 5.67182036 -20.29758419 3.3381615 -20 1 C-17.96166576 2.2739589 -15.96147874 3.61061923 -14 5 C-14 5.66 -14 6.32 -14 7 C-8.28307055 7.0955042 -8.28307055 7.0955042 -3.39453125 4.59765625 C-2.23733773 3.08440318 -1.11655923 1.54347893 0 0 Z " fill="#084B98" transform="translate(50,115)"/>
<path d="M0 0 C1.60829626 2.55435289 2.09985277 3.54511517 1.4375 6.5625 C1.293125 7.366875 1.14875 8.17125 1 9 C2.37514541 10.7087646 2.37514541 10.7087646 4 12 C4 12.66 4 13.32 4 14 C4.66 14 5.32 14 6 14 C6.66 12.35 7.32 10.7 8 9 C8.99 9 9.98 9 11 9 C9.68 11.31 8.36 13.62 7 16 C9.64 16 12.28 16 15 16 C15 16.33 15 16.66 15 17 C14.22914063 16.98839844 13.45828125 16.97679688 12.6640625 16.96484375 C11.66117188 16.95582031 10.65828125 16.94679688 9.625 16.9375 C8.12839844 16.92009766 8.12839844 16.92009766 6.6015625 16.90234375 C4.01567547 16.81993398 4.01567547 16.81993398 2 18 C-5.30434783 18.23188406 -5.30434783 18.23188406 -9 17 C-9.433125 16.195625 -9.86625 15.39125 -10.3125 14.5625 C-12.46245976 11.29774629 -14.28533211 10.90802993 -18 10 C-18 11.65 -18 13.3 -18 15 C-18.33 15 -18.66 15 -19 15 C-19 12.69 -19 10.38 -19 8 C-14.6305794 8.25702474 -12.48177009 8.60023333 -9.0625 11.4375 C-7 14 -7 14 -7 16 C-3.7 16 -0.4 16 3 16 C0.93992341 12.39486597 -1.3513141 9.19668988 -4 6 C-3.01 5.34 -2.02 4.68 -1 4 C-0.27617533 1.94074861 -0.27617533 1.94074861 0 0 Z " fill="#184C88" transform="translate(163,107)"/>
<path d="M0 0 C4.4859375 -0.061875 4.4859375 -0.061875 9.0625 -0.125 C9.99070557 -0.14320801 10.91891113 -0.16141602 11.87524414 -0.18017578 C16.98782201 -0.21404477 21.16162147 0.33249912 26 2 C26 2.33 26 2.66 26 3 C23.03 2.67 20.06 2.34 17 2 C17 2.99 17 3.98 17 5 C14.36 5 11.72 5 9 5 C8.67 5.99 8.34 6.98 8 8 C8 6.02 8 4.04 8 2 C6.02 2.33 4.04 2.66 2 3 C1.67 8.61 1.34 14.22 1 20 C3.64 20 6.28 20 9 20 C9 20.33 9 20.66 9 21 C6.03 21 3.06 21 0 21 C0 14.07 0 7.14 0 0 Z " fill="#D1E7F2" transform="translate(135,102)"/>
<path d="M0 0 C0.66 0.66 1.32 1.32 2 2 C-0.52053595 3.26026798 -1.8542098 2.91874445 -4.625 2.5625 C-5.85089844 2.40974609 -5.85089844 2.40974609 -7.1015625 2.25390625 C-7.72804688 2.17011719 -8.35453125 2.08632812 -9 2 C-8.96519531 2.98742187 -8.93039063 3.97484375 -8.89453125 4.9921875 C-8.86746094 6.27351563 -8.84039062 7.55484375 -8.8125 8.875 C-8.77769531 10.15117188 -8.74289063 11.42734375 -8.70703125 12.7421875 C-8.80371094 13.81726563 -8.90039062 14.89234375 -9 16 C-12.67346771 18.44897847 -14.66356399 18.31537716 -19 18 C-21 16 -21 16 -21.1953125 12.7421875 C-21.17210938 11.46601562 -21.14890625 10.18984375 -21.125 8.875 C-21.10695313 7.59367187 -21.08890625 6.31234375 -21.0703125 4.9921875 C-21.04710938 4.00476563 -21.02390625 3.01734375 -21 2 C-20.34 2 -19.68 2 -19 2 C-18.67 6.62 -18.34 11.24 -18 16 C-14.535 15.505 -14.535 15.505 -11 15 C-11.03480469 14.08476563 -11.06960937 13.16953125 -11.10546875 12.2265625 C-11.14607422 10.44378906 -11.14607422 10.44378906 -11.1875 8.625 C-11.23970703 6.84996094 -11.23970703 6.84996094 -11.29296875 5.0390625 C-11.19628906 4.03617187 -11.09960938 3.03328125 -11 2 C-6.93150591 -0.71232939 -4.83523216 -0.30699887 0 0 Z " fill="#0B468B" transform="translate(124,100)"/>
<path d="M0 0 C1.65 0 3.3 0 5 0 C5.33 5.61 5.66 11.22 6 17 C3.69 16.34 1.38 15.68 -1 15 C-1.02685412 12.68756208 -1.04632841 10.3750373 -1.0625 8.0625 C-1.07410156 6.77472656 -1.08570312 5.48695312 -1.09765625 4.16015625 C-1 1 -1 1 0 0 Z " fill="#FBFEFC" transform="translate(96,104)"/>
<path d="M0 0 C-0.99 0.66 -1.98 1.32 -3 2 C-4.90820958 1.28651374 -6.81371909 0.56369672 -8.6953125 -0.21728516 C-12.71457286 -1.58230091 -16.78905739 -1.57344133 -21 -1.6875 C-23.97 -1.790625 -26.94 -1.89375 -30 -2 C-30 4.6 -30 11.2 -30 18 C-30.66 18 -31.32 18 -32 18 C-32.02888146 14.68751813 -32.04675799 11.37506833 -32.0625 8.0625 C-32.07087891 7.11697266 -32.07925781 6.17144531 -32.08789062 5.19726562 C-32.09111328 4.29814453 -32.09433594 3.39902344 -32.09765625 2.47265625 C-32.10289307 1.64000244 -32.10812988 0.80734863 -32.11352539 -0.05053711 C-32 -2 -32 -2 -31 -3 C-27.59782078 -3.38357073 -24.16939714 -3.47060491 -20.75 -3.625 C-19.79480469 -3.6765625 -18.83960938 -3.728125 -17.85546875 -3.78125 C-16.46521484 -3.84699219 -16.46521484 -3.84699219 -15.046875 -3.9140625 C-14.19963867 -3.9548291 -13.35240234 -3.9955957 -12.47949219 -4.03759766 C-7.4843381 -3.96185389 -4.16382656 -2.73622888 0 0 Z " fill="#174C86" transform="translate(165,104)"/>
<path d="M0 0 C2.5 0.25 2.5 0.25 4.5 2.25 C4.75 4.75 4.75 4.75 4.5 7.25 C2.5 9.25 2.5 9.25 -0.625 9.375 C-2.048125 9.313125 -2.048125 9.313125 -3.5 9.25 C-4.125 5.875 -4.125 5.875 -4.5 2.25 C-2.5 0.25 -2.5 0.25 0 0 Z " fill="#D5ECF8" transform="translate(78.5,88.75)"/>
<path d="M0 0 C2.5 0.25 2.5 0.25 4.5 2.25 C4.75 4.75 4.75 4.75 4.5 7.25 C2.5 9.25 2.5 9.25 0 9.5 C-2.5 9.25 -2.5 9.25 -4.5 7.25 C-4.75 4.75 -4.75 4.75 -4.5 2.25 C-2.5 0.25 -2.5 0.25 0 0 Z " fill="#D5EFF9" transform="translate(78.5,126.75)"/>
<path d="M0 0 C2.97 0 5.94 0 9 0 C9 6.93 9 13.86 9 21 C6.03 21 3.06 21 0 21 C0 14.07 0 7.14 0 0 Z M1 1 C1 6.94 1 12.88 1 19 C2.98 19 4.96 19 7 19 C8.44388571 17.78571012 8.44388571 17.78571012 8.09765625 14.18359375 C8.09098089 12.60153318 8.07901875 11.01948841 8.0625 9.4375 C8.05798828 8.63119141 8.05347656 7.82488281 8.04882812 6.99414062 C8.03700518 4.99606244 8.01906914 2.99802217 8 1 C5.69 1 3.38 1 1 1 Z " fill="#CBE5F2" transform="translate(74,102)"/>
<path d="M0 0 C1.37376679 0.00398964 2.74753489 0.01873698 4.12109375 0.04296875 C4.81912109 0.04361328 5.51714844 0.04425781 6.23632812 0.04492188 C11.41828217 0.09015717 11.41828217 0.09015717 12.55859375 1.23046875 C12.80895349 4.53563809 12.74381327 7.85442916 12.74609375 11.16796875 C12.75833984 12.10060547 12.77058594 13.03324219 12.78320312 13.99414062 C12.78610352 15.3312207 12.78610352 15.3312207 12.7890625 16.6953125 C12.79317139 17.51636475 12.79728027 18.33741699 12.80151367 19.18334961 C12.55859375 21.23046875 12.55859375 21.23046875 10.55859375 23.23046875 C10.55859375 15.97046875 10.55859375 8.71046875 10.55859375 1.23046875 C6.26859375 1.23046875 1.97859375 1.23046875 -2.44140625 1.23046875 C-2.77140625 2.22046875 -3.10140625 3.21046875 -3.44140625 4.23046875 C-4.10140625 3.57046875 -4.76140625 2.91046875 -5.44140625 2.23046875 C-3.44140625 0.23046875 -3.44140625 0.23046875 0 0 Z " fill="#104883" transform="translate(52.44140625,100.76953125)"/>
<path d="M0 0 C0.99 0 1.98 0 3 0 C3 2.31 3 4.62 3 7 C2.34 7 1.68 7 1 7 C0.34 7.66 -0.32 8.32 -1 9 C-3.625 9.625 -3.625 9.625 -6 10 C-6 9.67 -6 9.34 -6 9 C-8.31 8.67 -10.62 8.34 -13 8 C-13 7.67 -13 7.34 -13 7 C-11.783125 6.95875 -10.56625 6.9175 -9.3125 6.875 C-6.72918582 6.57832964 -5.40043484 6.36486321 -3.4609375 4.59765625 C-2.29344867 3.07562326 -1.14569513 1.53850488 0 0 Z " fill="#124D92" transform="translate(50,115)"/>
<path d="M0 0 C8.79042303 -0.92171426 8.79042303 -0.92171426 11.70703125 1.30078125 C13 2.9375 13 2.9375 15 6 C15.66 6.33 16.32 6.66 17 7 C17 8.32 17 9.64 17 11 C17.66 11 18.32 11 19 11 C22.22265625 16.2734375 22.22265625 16.2734375 23 18 C22.67 18.66 22.34 19.32 22 20 C20.95399911 18.69095155 19.91351131 17.37749808 18.875 16.0625 C18.23046875 15.24910156 17.5859375 14.43570313 16.921875 13.59765625 C15.10590399 11.14314259 13.63759606 8.6470431 12.125 6 C10.42470072 3.34328238 9.64565489 2.21344841 6.625 1.21484375 C4.37429166 0.96515579 2.25886478 0.87450751 0 1 C0 0.67 0 0.34 0 0 Z " fill="#144A86" transform="translate(184,101)"/>
<path d="M0 0 C5.28 0 10.56 0 16 0 C16.66 1.65 17.32 3.3 18 5 C17.47921875 4.51917969 16.9584375 4.03835937 16.421875 3.54296875 C13.29094187 1.54826135 10.93631779 1.49681589 7.25 1.3125 C5.1875 1.209375 3.125 1.10625 1 1 C1 7.27 1 13.54 1 20 C0.67 20 0.34 20 0 20 C-0.19421438 17.04196565 -0.38066186 14.08379837 -0.5625 11.125 C-0.61857422 10.28324219 -0.67464844 9.44148438 -0.73242188 8.57421875 C-0.78076172 7.76855469 -0.82910156 6.96289062 -0.87890625 6.1328125 C-0.9260376 5.38918457 -0.97316895 4.64555664 -1.02172852 3.87939453 C-1 2 -1 2 0 0 Z " fill="#0C3F7A" transform="translate(18,101)"/>
<path d="M0 0 C1.32 0 2.64 0 4 0 C5 3 5 3 4.0625 5.1875 C3.5365625 6.0846875 3.5365625 6.0846875 3 7 C2.01 7 1.02 7 0 7 C-0.33 7.66 -0.66 8.32 -1 9 C-1.80967438 6.08517222 -2.21845993 4.53886783 -1.0625 1.6875 C-0.711875 1.130625 -0.36125 0.57375 0 0 Z " fill="#F9FDFC" transform="translate(184,103)"/>
<path d="M0 0 C0.66 0.33 1.32 0.66 2 1 C1.04956626 2.33897583 0.08940853 3.67105427 -0.875 5 C-1.40867187 5.7425 -1.94234375 6.485 -2.4921875 7.25 C-2.98976563 7.8275 -3.48734375 8.405 -4 9 C-4.66 9 -5.32 9 -6 9 C-10 3.58823529 -10 3.58823529 -10 1 C-9.34 1 -8.68 1 -8 1 C-8 1.66 -8 2.32 -8 3 C-5.03 3.495 -5.03 3.495 -2 4 C-1.34 2.68 -0.68 1.36 0 0 Z " fill="#184D88" transform="translate(46,105)"/>
<path d="M0 0 C4.29 0 8.58 0 13 0 C13.66 1.32 14.32 2.64 15 4 C14.01 3.67 13.02 3.34 12 3 C10.17037564 2.85671616 8.33498763 2.77959657 6.5 2.75 C5.06140625 2.71132812 5.06140625 2.71132812 3.59375 2.671875 C0.63556747 3.04610291 -0.20113073 3.69064081 -2 6 C-1.49396008 3.83125748 -1.00016187 2.00032373 0 0 Z " fill="#346196" transform="translate(181,118)"/>
<path d="M0 0 C0.66 0 1.32 0 2 0 C2.33 4.62 2.66 9.24 3 14 C2.01 14 1.02 14 0 14 C0 9.38 0 4.76 0 0 Z " fill="#0B458A" transform="translate(103,102)"/>
<path d="M0 0 C0 0.99 0 1.98 0 3 C-3.3 3 -6.6 3 -10 3 C-9.67 2.01 -9.34 1.02 -9 0 C-5.62182575 -0.84454356 -3.32534757 -1.10844919 0 0 Z " fill="#BFD6EB" transform="translate(166,120)"/>
<path d="M0 0 C0.33 0.99 0.66 1.98 1 3 C-0.77442409 5.99816485 -2.53540571 8.53540571 -5 11 C-2.03 11.495 -2.03 11.495 1 12 C1 12.33 1 12.66 1 13 C-1.64 13 -4.28 13 -7 13 C-6.36610765 9.50155614 -4.94822306 7.15913124 -2.9375 4.25 C-2.38964844 3.45078125 -1.84179688 2.6515625 -1.27734375 1.828125 C-0.85582031 1.22484375 -0.43429688 0.6215625 0 0 Z " fill="#B5CFE8" transform="translate(177,110)"/>
<path d="M0 0 C0.33 0 0.66 0 1 0 C1.0810206 2.10353495 1.13919907 4.20795952 1.1875 6.3125 C1.22230469 7.48425781 1.25710937 8.65601562 1.29296875 9.86328125 C1 13 1 13 -0.51171875 14.91796875 C-1.00285156 15.27503906 -1.49398437 15.63210937 -2 16 C-2.625 13.6875 -2.625 13.6875 -3 11 C-2.34 10.01 -1.68 9.02 -1 8 C-0.54860541 5.9507906 -0.54860541 5.9507906 -0.375 3.8125 C-0.25125 2.554375 -0.1275 1.29625 0 0 Z " fill="#C7DCEF" transform="translate(124,103)"/>
<path d="M0 0 C0.66 0.33 1.32 0.66 2 1 C2 2.98 2 4.96 2 7 C0.68 7 -0.64 7 -2 7 C-2.33 5.35 -2.66 3.7 -3 2 C-2.01 1.34 -1.02 0.68 0 0 Z " fill="#F9FEFD" transform="translate(79,128)"/>
<path d="M0 0 C0.33 0 0.66 0 1 0 C1 4.29 1 8.58 1 13 C3.64 13 6.28 13 9 13 C9 13.33 9 13.66 9 14 C6.03 14 3.06 14 0 14 C-0.22786458 12.01432292 -0.45572917 10.02864583 -0.68359375 8.04296875 C-0.97170735 5.80603607 -0.97170735 5.80603607 -2 3 C-1.34 2.01 -0.68 1.02 0 0 Z " fill="#144278" transform="translate(53,110)"/>
<path d="M0 0 C3.95820859 0.56545837 6.6659053 1.80902348 10 4 C9.01 4.66 8.02 5.32 7 6 C4.95703125 5.5390625 4.95703125 5.5390625 2.8125 4.625 C1.73935547 4.18027344 1.73935547 4.18027344 0.64453125 3.7265625 C0.10183594 3.48679687 -0.44085938 3.24703125 -1 3 C-0.67 2.01 -0.34 1.02 0 0 Z " fill="#1B5395" transform="translate(155,100)"/>
<path d="M0 0 C2.64 0 5.28 0 8 0 C8 0.99 8 1.98 8 3 C8.33 3.33 8.66 3.66 9 4 C9.04080783 5.99958364 9.04254356 8.00045254 9 10 C8.67 10 8.34 10 8 10 C7.79375 9.05125 7.5875 8.1025 7.375 7.125 C6.29166667 3.70833333 6.29166667 3.70833333 2.875 2.625 C1.92625 2.41875 0.9775 2.2125 0 2 C0 1.34 0 0.68 0 0 Z " fill="#0B4689" transform="translate(75,124)"/>
<path d="M0 0 C0.33 0.66 0.66 1.32 1 2 C2.32 1.34 3.64 0.68 5 0 C4.3125 1.9375 4.3125 1.9375 3 4 C0.375 4.75 0.375 4.75 -2 5 C-2 4.67 -2 4.34 -2 4 C-4.31 3.67 -6.62 3.34 -9 3 C-9 2.67 -9 2.34 -9 2 C-6.94921875 1.77213542 -4.8984375 1.54427083 -2.84765625 1.31640625 C-0.98859771 1.18113386 -0.98859771 1.18113386 0 0 Z " fill="#316AAA" transform="translate(46,120)"/>
<path d="M0 0 C4.5 4.5 4.5 4.5 6 8 C4.68 7.67 3.36 7.34 2 7 C1.67 8.65 1.34 10.3 1 12 C0.67 12 0.34 12 0 12 C0 8.04 0 4.08 0 0 Z " fill="#2F5788" transform="translate(28,110)"/>
<path d="M0 0 C2.64 0 5.28 0 8 0 C8.33 0.99 8.66 1.98 9 3 C6.03 3 3.06 3 0 3 C0 2.01 0 1.02 0 0 Z " fill="#355782" transform="translate(144,107)"/>
<path d="M0 0 C1.56529115 0.11196973 3.12982098 0.24694897 4.6875 0.4375 C4.6875 0.7675 4.6875 1.0975 4.6875 1.4375 C0.2325 1.9325 0.2325 1.9325 -4.3125 2.4375 C-4.9725 4.4175 -5.6325 6.3975 -6.3125 8.4375 C-7.6325 8.1075 -8.9525 7.7775 -10.3125 7.4375 C-7.50055425 2.18853459 -6.18941999 -0.06145523 0 0 Z " fill="#B6CFE5" transform="translate(188.3125,101.5625)"/>
<path d="M0 0 C0.99 0.33 1.98 0.66 3 1 C3 2.65 3 4.3 3 6 C1.35 5.67 -0.3 5.34 -2 5 C-2 3.68 -2 2.36 -2 1 C-1.34 0.67 -0.68 0.34 0 0 Z " fill="#F9FDFA" transform="translate(78,91)"/>
<path d="M0 0 C0 0.66 0 1.32 0 2 C-2.95664519 3.4783226 -5.74229737 3.06032783 -9 3 C-9.33 2.34 -9.66 1.68 -10 1 C-3.375 0 -3.375 0 0 0 Z " fill="#305E92" transform="translate(114,115)"/>
</svg>
