<?xml version="1.0" encoding="UTF-8"?>
<svg version="1.1" xmlns="http://www.w3.org/2000/svg" width="200" height="200">
<path d="M0 0 C66 0 132 0 200 0 C200 66 200 132 200 200 C134 200 68 200 0 200 C0 134 0 68 0 0 Z " fill="#FE4719" transform="translate(0,0)"/>
<path d="M0 0 C5.82022081 5.69590541 8.2748119 12.11472618 8.375 20.25 C8.30276378 26.54177462 6.82196692 31.41905648 4 37 C3.34 37 2.68 37 2 37 C-2.41273094 30.75913767 -3.25104883 26.3658902 -2.93359375 18.8046875 C-3.0642829 13.28499294 -5.59924356 10.36573753 -9.5 6.5625 C-14.68153223 4.24931597 -19.41637662 4.26369802 -25 5 C-29.93781067 7.11620457 -32.1923238 10.06661701 -34.3046875 14.859375 C-35.99055375 20.04956998 -35.56537454 24.28024264 -33.375 29.25 C-31.18774221 33.10229832 -29.11194509 35.13093405 -25 37 C-23.1278498 37.14672875 -21.2517669 37.24752538 -19.375 37.3125 C-14.4493175 37.56716114 -14.4493175 37.56716114 -12.40234375 39.5390625 C-11.00506628 41.97302971 -10 44.15896689 -10 47 C-15.59105862 49.79552931 -23.61029799 48.72298144 -29.3828125 46.9765625 C-37.59842717 43.24967966 -41.90099555 38.4456689 -45.1171875 30.1015625 C-47.33496725 22.30989383 -46.87430649 14.92545683 -43.5 7.5625 C-39.82854413 1.0229892 -35.62395523 -2.43672519 -28.8125 -5.375 C-17.87522333 -7.16799618 -9.26302991 -6.5549477 0 0 Z " fill="#FDF6F2" transform="translate(70,79)"/>
<path d="M0 0 C4.50194084 3.37645563 8.05721137 7.36617068 9.5 12.875 C9.5 15.515 9.5 18.155 9.5 20.875 C0.26 20.875 -8.98 20.875 -18.5 20.875 C-16.16151858 26.79231018 -16.16151858 26.79231018 -12.5 28.875 C-8.12451969 29.37986311 -5.53724472 29.10595377 -1.9375 26.6875 C-0.803125 26.089375 0.33125 25.49125 1.5 24.875 C4.9375 26.125 4.9375 26.125 7.5 27.875 C6.50261116 31.46559983 5.61279244 32.78672765 2.625 35.125 C-3.33945312 38.46509375 -10.12541018 39.065313 -16.75390625 37.26171875 C-22.26380794 34.88838349 -24.9507779 31.20320242 -27.5 25.875 C-29.49431379 19.89205863 -28.87066065 14.48370571 -26.484375 8.765625 C-20.93787276 -1.88718088 -11.0395413 -3.54842399 0 0 Z " fill="#FDF4F0" transform="translate(166.5,89.125)"/>
<path d="M0 0 C3.63 0 7.26 0 11 0 C13.64 7.59 16.28 15.18 19 23 C20.42985984 20.14028032 21.50704574 17.69939551 22.47265625 14.70703125 C22.73240234 13.91232422 22.99214844 13.11761719 23.25976562 12.29882812 C23.52466797 11.47833984 23.78957031 10.65785156 24.0625 9.8125 C24.59229832 8.17228505 25.12471163 6.53291167 25.66015625 4.89453125 C25.89355713 4.17112549 26.12695801 3.44771973 26.36743164 2.70239258 C27 1 27 1 28 0 C29.68608966 -0.07205511 31.37500659 -0.08386068 33.0625 -0.0625 C33.98160156 -0.05347656 34.90070313 -0.04445313 35.84765625 -0.03515625 C36.55792969 -0.02355469 37.26820313 -0.01195313 38 0 C37.27638157 4.42794492 35.82701658 8.51536684 34.27734375 12.70703125 C34.01240616 13.43242599 33.74746857 14.15782074 33.47450256 14.90519714 C32.63223577 17.20889344 31.78494734 19.51070506 30.9375 21.8125 C30.36359921 23.37943534 29.79002787 24.94649138 29.21679688 26.51367188 C27.81500906 30.34385618 26.4087164 34.17235885 25 38 C21.37 38 17.74 38 14 38 C12.16393924 33.23225691 10.33093378 28.46335479 8.50073242 23.69335938 C7.8778707 22.07129324 7.25417969 20.44954529 6.62963867 18.828125 C5.73136962 16.49562685 4.83610263 14.1619955 3.94140625 11.828125 C3.52260948 10.74352997 3.52260948 10.74352997 3.09535217 9.63702393 C1.86944737 6.4313041 0.83416662 3.33666647 0 0 Z " fill="#FDF6F3" transform="translate(100,88)"/>
<path d="M0 0 C3.63 0 7.26 0 11 0 C11 12.54 11 25.08 11 38 C7.37 38 3.74 38 0 38 C0 25.46 0 12.92 0 0 Z " fill="#FDFDFC" transform="translate(84,88)"/>
<path d="M0 0 C4.29 0 8.58 0 13 0 C13.59167969 1.0621875 14.18335937 2.124375 14.79296875 3.21875 C15.59065083 4.64611008 16.38886156 6.0731748 17.1875 7.5 C17.59734131 8.23234863 18.00718262 8.96469727 18.42944336 9.71923828 C20.55499413 13.4979018 22.71650053 17.22717424 25.0625 20.875 C27 24 27 24 27 26 C22.83074046 26.66358357 19.14711689 26.88987244 15 26 C11.66103138 22.93515936 9.86984258 19.27998502 7.875 15.25 C7.05128906 13.72632812 7.05128906 13.72632812 6.2109375 12.171875 C4.7597975 9.46877108 3.36587279 6.74692797 2 4 C1.34 2.68 0.68 1.36 0 0 Z " fill="#131313" transform="translate(51,100)"/>
<path d="M0 0 C0.66 0 1.32 0 2 0 C2 0.99 2 1.98 2 3 C2.66 3 3.32 3 4 3 C4.33 4.32 4.66 5.64 5 7 C6.32 5.68 7.64 4.36 9 3 C9.07403712 8.23271569 9.12854783 13.46512801 9.16479492 18.69824219 C9.17990173 20.47922067 9.20038835 22.26016184 9.22631836 24.04101562 C9.26261943 26.59774978 9.27970688 29.1539931 9.29296875 31.7109375 C9.30845261 32.50994476 9.32393646 33.30895203 9.33988953 34.13217163 C9.34057617 36.37646484 9.34057617 36.37646484 9 40 C5.23491505 42.51005664 2.60538391 42.0258295 -1.6875 41.625 C-2.7403418 41.53992188 -2.7403418 41.53992188 -3.81445312 41.453125 C-5.54380285 41.31195359 -7.27204088 41.15728041 -9 41 C-9 40.67 -9 40.34 -9 40 C-5.04 40 -1.08 40 3 40 C1.63875 37.834375 1.63875 37.834375 0.25 35.625 C-2.18230945 30.79425727 -2.18230945 30.79425727 -1.44140625 27.56640625 C-0.66944977 25.93968828 0.12053245 24.3214351 0.92578125 22.7109375 C3.73989521 15.60913717 2.61720304 7.03373317 0 0 Z " fill="#FD471A" transform="translate(75,86)"/>
<path d="M0 0 C3.63 0 7.26 0 11 0 C11 12.54 11 25.08 11 38 C7.37 38 3.74 38 0 38 C0 25.46 0 12.92 0 0 Z M4 1 C2.43424901 5.85166093 1.75891589 9.87803721 1.8046875 15.02734375 C1.81113281 16.31318359 1.81757812 17.59902344 1.82421875 18.92382812 C1.84092399 20.26172154 1.85785381 21.59961217 1.875 22.9375 C1.88504678 24.30272783 1.89416964 25.6679628 1.90234375 27.03320312 C1.92582395 30.35565199 1.95866641 33.67773321 2 37 C4.31 37 6.62 37 9 37 C9 25.45 9 13.9 9 2 C7.35 1.67 5.7 1.34 4 1 Z " fill="#FED0BF" transform="translate(84,88)"/>
<path d="M0 0 C9.24 0 18.48 0 28 0 C28 0.33 28 0.66 28 1 C25.69 1.33 23.38 1.66 21 2 C21.99 3.32 22.98 4.64 24 6 C23.29875 5.7525 22.5975 5.505 21.875 5.25 C18.82320863 4.68114922 18.82320863 4.68114922 16.125 6.9375 C12.33647187 9.43792857 10.45870546 9.64853898 6 9 C3.125 7.3125 3.125 7.3125 1 5 C0.67 3.35 0.34 1.7 0 0 Z " fill="#F54B1F" transform="translate(148,110)"/>
<path d="M0 0 C2.13812549 2.01594689 3.74707633 3.98895817 5.26171875 6.50390625 C5.65810547 7.16197266 6.05449219 7.82003906 6.46289062 8.49804688 C6.86701172 9.17931641 7.27113281 9.86058594 7.6875 10.5625 C8.10322266 11.24763672 8.51894531 11.93277344 8.94726562 12.63867188 C12 17.7466133 12 17.7466133 12 20 C6.52940419 21.84532714 1.81180072 22.25309068 -3.9375 22.125 C-4.71673828 22.11597656 -5.49597656 22.10695312 -6.29882812 22.09765625 C-8.19935447 22.07433691 -10.09972008 22.03847586 -12 22 C-12.33 21.34 -12.66 20.68 -13 20 C-6.73 20 -0.46 20 6 20 C4.68 17.69 3.36 15.38 2 13 C2 12.34 2 11.68 2 11 C0.84371094 11.03480469 0.84371094 11.03480469 -0.3359375 11.0703125 C-1.33882812 11.08835937 -2.34171875 11.10640625 -3.375 11.125 C-4.37273438 11.14820312 -5.37046875 11.17140625 -6.3984375 11.1953125 C-9 11 -9 11 -11 9 C-7.7 8.67 -4.4 8.34 -1 8 C-0.67 5.36 -0.34 2.72 0 0 Z " fill="#EA512B" transform="translate(54,106)"/>
<path d="M0 0 C3.91282553 0.06219809 4.74083344 0.08992073 7.75 2.8125 C9.125 5.4375 9.125 5.4375 9.125 7.4375 C3.185 7.4375 -2.755 7.4375 -8.875 7.4375 C-5.96013189 0.15032974 -5.96013189 0.15032974 0 0 Z " fill="#FD4718" transform="translate(156.875,95.5625)"/>
<path d="M0 0 C0.33 0 0.66 0 1 0 C1 1.98 1 3.96 1 6 C1.99 6 2.98 6 4 6 C3.67515625 6.94359375 3.67515625 6.94359375 3.34375 7.90625 C0.96163879 15.22903631 -0.62265542 21.15074301 2.9375 28.375 C3.61285849 29.59016115 4.29845508 30.79976652 5 32 C5.33 32.66 5.66 33.32 6 34 C2.76351669 32.99557415 2.00234501 32.00416891 0.3125 29 C-1.44413355 24.48430616 -1.71994126 19.79962732 -2 15 C-3.32 16.98 -4.64 18.96 -6 21 C-7 19 -7 19 -6.47094727 17.02880859 C-6.17244873 16.24328613 -5.8739502 15.45776367 -5.56640625 14.6484375 C-5.24736328 13.79765625 -4.92832031 12.946875 -4.59960938 12.0703125 C-4.08624023 10.73613281 -4.08624023 10.73613281 -3.5625 9.375 C-3.05493164 8.02921875 -3.05493164 8.02921875 -2.53710938 6.65625 C-1.69817012 4.43483339 -0.8522225 2.21634729 0 0 Z " fill="#E95A36" transform="translate(138,88)"/>
<path d="M0 0 C0.33 0 0.66 0 1 0 C1.07403712 5.23271569 1.12854783 10.46512801 1.16479492 15.69824219 C1.17990173 17.47922067 1.20038835 19.26016184 1.22631836 21.04101562 C1.26261943 23.59774978 1.27970688 26.1539931 1.29296875 28.7109375 C1.30845261 29.50994476 1.32393646 30.30895203 1.33988953 31.13217163 C1.34057617 33.37646484 1.34057617 33.37646484 1 37 C-2.76508495 39.51005664 -5.39461609 39.0258295 -9.6875 38.625 C-10.7403418 38.53992188 -10.7403418 38.53992188 -11.81445312 38.453125 C-13.54380285 38.31195359 -15.27204088 38.15728041 -17 38 C-17 37.67 -17 37.34 -17 37 C-13.04 37 -9.08 37 -5 37 C-5.66 35.35 -6.32 33.7 -7 32 C-2.25 29 -2.25 29 0 29 C0 19.43 0 9.86 0 0 Z " fill="#E94A24" transform="translate(83,89)"/>
<path d="M0 0 C4.29 0 8.58 0 13 0 C13.66 1.98 14.32 3.96 15 6 C13.02 6.33 11.04 6.66 9 7 C8.67 8.65 8.34 10.3 8 12 C4.25303703 8.60465818 2.37095224 4.42150552 0 0 Z " fill="#1A1412" transform="translate(51,100)"/>
<path d="M0 0 C3.44940753 0.77611669 4.72432543 1.61975921 6.8125 4.5 C8 7 8 7 8 9 C7.34 9 6.68 9 6 9 C5.34 8.34 4.68 7.68 4 7 C3.67 7.66 3.34 8.32 3 9 C3.66 9.33 4.32 9.66 5 10 C4.01 11.485 4.01 11.485 3 13 C3 12.34 3 11.68 3 11 C1.35 10.67 -0.3 10.34 -2 10 C-2 9.01 -2 8.02 -2 7 C-2.66 7 -3.32 7 -4 7 C-3.6875 4.625 -3.6875 4.625 -3 2 C-2.01 1.34 -1.02 0.68 0 0 Z " fill="#131618" transform="translate(63,105)"/>
<path d="M0 0 C1.5625 1.25 1.5625 1.25 3 3 C2.6875 5.1875 2.6875 5.1875 2 7 C2.99 7.66 3.98 8.32 5 9 C5 9.66 5 10.32 5 11 C2.03 11 -0.94 11 -4 11 C-4.625 8.125 -4.625 8.125 -5 5 C-3.33333333 3.33333333 -1.66666667 1.66666667 0 0 Z " fill="#161717" transform="translate(71,114)"/>
<path d="M0 0 C9.24 0 18.48 0 28 0 C28 0.33 28 0.66 28 1 C25.69 1.33 23.38 1.66 21 2 C21.99 3.32 22.98 4.64 24 6 C23.29875 5.7525 22.5975 5.505 21.875 5.25 C18.82320863 4.68114922 18.82320863 4.68114922 16.125 6.9375 C12.43100006 9.37553996 10.33584745 9.3468678 6 9 C6 8.67 6 8.34 6 8 C7.98567708 7.51171875 9.97135417 7.0234375 11.95703125 6.53515625 C13.65683202 6.08989295 15.33301954 5.55566015 17 5 C16.67 3.68 16.34 2.36 16 1 C10.72 1 5.44 1 0 1 C0 0.67 0 0.34 0 0 Z " fill="#EF6D50" transform="translate(148,110)"/>
<path d="M0 0 C3.465 1.485 3.465 1.485 7 3 C5.73882275 6.88862987 4.54735833 8.89375599 1 11 C0.34 11 -0.32 11 -1 11 C-1 9.35 -1 7.7 -1 6 C-2.65 5.67 -4.3 5.34 -6 5 C-5.195625 4.360625 -4.39125 3.72125 -3.5625 3.0625 C-1.7249496 1.59396498 -1.7249496 1.59396498 0 0 Z " fill="#FEEBE3" transform="translate(167,114)"/>
<path d="M0 0 C2.53198057 3.79797086 3.98405939 7.75756818 5.625 12 C5.94984375 12.81984375 6.2746875 13.6396875 6.609375 14.484375 C7.06957031 15.66773437 7.06957031 15.66773437 7.5390625 16.875 C7.81959473 17.59429687 8.10012695 18.31359375 8.38916016 19.0546875 C9 21 9 21 9 24 C12.3 24 15.6 24 19 24 C18.67 24.66 18.34 25.32 18 26 C16.56510191 26.13536774 15.12652893 26.23217143 13.6875 26.3125 C12.88699219 26.37050781 12.08648437 26.42851562 11.26171875 26.48828125 C9 26 9 26 7.34375 23.8671875 C5.94716695 20.88726901 4.82744118 17.94287414 3.8125 14.8125 C3.46832031 13.76707031 3.12414062 12.72164062 2.76953125 11.64453125 C2 9 2 9 2 7 C1.34 7 0.68 7 0 7 C0 4.69 0 2.38 0 0 Z " fill="#EC603E" transform="translate(105,102)"/>
<path d="M0 0 C0.66 0.33 1.32 0.66 2 1 C2.93385816 3.80157448 3.16354595 5.65447803 3.1875 8.5625 C3.20167969 9.34753906 3.21585938 10.13257812 3.23046875 10.94140625 C3 13 3 13 1 15 C0.34 13.02 -0.32 11.04 -1 9 C-4.96 9 -8.92 9 -13 9 C-13 8.67 -13 8.34 -13 8 C-9.04 7.34 -5.08 6.68 -1 6 C-0.67 4.02 -0.34 2.04 0 0 Z " fill="#E95837" transform="translate(65,91)"/>
<path d="M0 0 C0.66 0 1.32 0 2 0 C2 0.99 2 1.98 2 3 C2.66 3 3.32 3 4 3 C4.3181514 14.15886579 4.25110453 24.22104034 1 35 C-0.61328125 33.30859375 -0.61328125 33.30859375 -2 31 C-1.41796875 28.66015625 -1.41796875 28.66015625 -0.1875 26.0625 C3.2596661 17.56404099 3.19478358 8.58598087 0 0 Z " fill="#E65D3B" transform="translate(75,86)"/>
<path d="M0 0 C3.91282553 0.06219809 4.74083344 0.08992073 7.75 2.8125 C9.125 5.4375 9.125 5.4375 9.125 7.4375 C3.185 7.4375 -2.755 7.4375 -8.875 7.4375 C-5.96013189 0.15032974 -5.96013189 0.15032974 0 0 Z M-6.875 3.4375 C-6.875 4.4275 -6.875 5.4175 -6.875 6.4375 C-5.27092672 6.46458567 -3.6667215 6.48393483 -2.0625 6.5 C-0.72251953 6.51740234 -0.72251953 6.51740234 0.64453125 6.53515625 C3.25913791 6.54759967 3.25913791 6.54759967 6.125 5.4375 C5.465 4.1175 4.805 2.7975 4.125 1.4375 C2.2378125 1.375625 2.2378125 1.375625 0.3125 1.3125 C-0.39519531 1.28929688 -1.10289062 1.26609375 -1.83203125 1.2421875 C-4.18859719 1.30495538 -4.18859719 1.30495538 -6.875 3.4375 Z " fill="#E26E53" transform="translate(156.875,95.5625)"/>
<path d="M0 0 C1.31327417 2.62654835 0.72027039 3.62394379 0 6.4375 C-1.24729045 12.13345971 -0.80653869 17.26703582 0 23 C-3.31075942 18.82556421 -4.33082784 15.60540228 -4.30078125 10.20703125 C-3.78130177 6.39526621 -1.94751089 3.26903613 0 0 Z " fill="#EB5C39" transform="translate(38,88)"/>
<path d="M0 0 C0.66 0 1.32 0 2 0 C3.98 6.27 5.96 12.54 8 19 C8.66 19 9.32 19 10 19 C9.67 20.98 9.34 22.96 9 25 C6.811636 22.811636 6.28365452 21.4227652 5.2734375 18.53515625 C4.9640625 17.65279297 4.6546875 16.77042969 4.3359375 15.86132812 C4.01882812 14.93771484 3.70171875 14.01410156 3.375 13.0625 C2.88773437 11.68288086 2.88773437 11.68288086 2.390625 10.27539062 C0 3.38978795 0 3.38978795 0 0 Z " fill="#E35D3B" transform="translate(111,88)"/>
<path d="M0 0 C4.29 0 8.58 0 13 0 C12.67 0.66 12.34 1.32 12 2 C9.36 2 6.72 2 4 2 C4 2.99 4 3.98 4 5 C4.66 5 5.32 5 6 5 C6 5.66 6 6.32 6 7 C6.99 7 7.98 7 9 7 C8.67 8.65 8.34 10.3 8 12 C4.25303703 8.60465818 2.37095224 4.42150552 0 0 Z " fill="#3F1307" transform="translate(51,100)"/>
<path d="M0 0 C3.3 0 6.6 0 10 0 C9.39009109 3.55780196 8.4216319 6.6828589 7 10 C5.90341064 6.71023192 6.20046862 5.28696233 7 2 C5.02 2 3.04 2 1 2 C0.34 3.32 -0.32 4.64 -1 6 C-1.33 5.34 -1.66 4.68 -2 4 C-1.34 2.68 -0.68 1.36 0 0 Z " fill="#FDD4C6" transform="translate(128,88)"/>
<path d="M0 0 C2.87109375 1.52734375 2.87109375 1.52734375 5 3 C4.01 3.495 4.01 3.495 3 4 C2.113125 3.690625 1.22625 3.38125 0.3125 3.0625 C-3.38623321 1.87611388 -6.13758211 1.64236871 -10 2 C-11.35622245 2.96873032 -12.69417053 3.96434215 -14 5 C-16.25 4.6875 -16.25 4.6875 -18 4 C-12.6292405 -0.77400844 -7.0017312 -1.04601906 0 0 Z " fill="#E65B3A" transform="translate(57,83)"/>
<path d="M0 0 C2.63520741 2.40502363 4.40302943 5.0185849 6.25 8.0625 C6.79140625 8.94035156 7.3328125 9.81820312 7.890625 10.72265625 C8.25671875 11.47417969 8.6228125 12.22570312 9 13 C8.67 13.66 8.34 14.32 8 15 C5 11.25 5 11.25 5 9 C2.03 8.505 2.03 8.505 -1 8 C-0.67 5.36 -0.34 2.72 0 0 Z " fill="#D94925" transform="translate(54,106)"/>
<path d="M0 0 C1.21429688 -0.00257812 2.42859375 -0.00515625 3.6796875 -0.0078125 C6.63619095 0.10615702 9.25691815 0.43796899 12.125 1.125 C11.795 2.445 11.465 3.765 11.125 5.125 C10.42503906 4.63515625 9.72507812 4.1453125 9.00390625 3.640625 C5.71251738 1.90784497 3.75037616 1.78175408 0.0625 1.875 C-1.47083984 1.89820312 -1.47083984 1.89820312 -3.03515625 1.921875 C-5.46039159 2.09534438 -7.55344322 2.43465698 -9.875 3.125 C-9.875 2.465 -9.875 1.805 -9.875 1.125 C-6.40672305 -0.03109232 -3.6534416 -0.00772398 0 0 Z " fill="#FEDDCD" transform="translate(50.875,81.875)"/>
<path d="M0 0 C3.96 0.33 7.92 0.66 12 1 C12.33 2.98 12.66 4.96 13 7 C8.71 5.02 4.42 3.04 0 1 C0 0.67 0 0.34 0 0 Z " fill="#F05938" transform="translate(58,73)"/>
<path d="M0 0 C0.66 0 1.32 0 2 0 C5 4.38461538 5 4.38461538 5 7 C1.04 7 -2.92 7 -7 7 C-7.33 5.68 -7.66 4.36 -8 3 C-7.34 3 -6.68 3 -6 3 C-6 3.99 -6 4.98 -6 6 C-3.03 6 -0.06 6 3 6 C3 5.34 3 4.68 3 4 C1.68 3.34 0.36 2.68 -1 2 C-0.67 1.34 -0.34 0.68 0 0 Z " fill="#370E06" transform="translate(73,119)"/>
<path d="M0 0 C0.96421875 0.18046875 1.9284375 0.3609375 2.921875 0.546875 C3.69015625 0.77890625 4.4584375 1.0109375 5.25 1.25 C5.58 1.91 5.91 2.57 6.25 3.25 C0.64 3.25 -4.97 3.25 -10.75 3.25 C-10.75 2.59 -10.75 1.93 -10.75 1.25 C-6.77437737 -0.6942826 -4.3201719 -0.86403438 0 0 Z " fill="#ED5F37" transform="translate(158.75,85.75)"/>
<path d="M0 0 C2 2 2 2 2.9375 4.4375 C4.00692038 7.01669032 5.02541321 8.11126481 7 10 C7.33 10.99 7.66 11.98 8 13 C8.66 13.33 9.32 13.66 10 14 C9.67 14.66 9.34 15.32 9 16 C4.76069809 12.23173163 2.00165951 8.34521366 0 3 C0 2.01 0 1.02 0 0 Z " fill="#FEE5D7" transform="translate(25,106)"/>
<path d="M0 0 C3.63 0 7.26 0 11 0 C11 0.33 11 0.66 11 1 C8.36 1 5.72 1 3 1 C3.33 1.886875 3.66 2.77375 4 3.6875 C4.91222143 6.70923347 5.18330958 8.88373706 5 12 C2.4306489 8.14597335 1.40687345 4.41246673 0 0 Z " fill="#FDCCBA" transform="translate(100,88)"/>
<path d="M0 0 C0.66 0 1.32 0 2 0 C2.33 1.65 2.66 3.3 3 5 C3.33 3.35 3.66 1.7 4 0 C5.42944945 2.35438733 6.08661261 3.48032433 5.625 6.25 C5.41875 6.8275 5.2125 7.405 5 8 C3.68 8.33 2.36 8.66 1 9 C0.67 6.03 0.34 3.06 0 0 Z " fill="#F54C1F" transform="translate(95,88)"/>
<path d="M0 0 C-0.33 0.61875 -0.66 1.2375 -1 1.875 C-2.14193235 3.91018344 -2.14193235 3.91018344 -2 6 C-4 6 -4 6 -5.5 4.625 C-5.995 4.08875 -6.49 3.5525 -7 3 C-7.66 2.34 -8.32 1.68 -9 1 C-6.04335481 -0.4783226 -3.25770263 -0.06032783 0 0 Z " fill="#F44B21" transform="translate(176,111)"/>
<path d="M0 0 C-0.33 0.99 -0.66 1.98 -1 3 C0.65 3.33 2.3 3.66 4 4 C4 4.33 4 4.66 4 5 C0.7 5 -2.6 5 -6 5 C-6 4.01 -6 3.02 -6 2 C-3 0 -3 0 0 0 Z " fill="#F34921" transform="translate(156,97)"/>
<path d="M0 0 C1.65 0 3.3 0 5 0 C3.35 3.63 1.7 7.26 0 11 C-0.33 11 -0.66 11 -1 11 C-1.09989518 7.50366865 -0.75810962 4.41149328 0 1 C0 0.67 0 0.34 0 0 Z " fill="#EC5B38" transform="translate(25,82)"/>
<path d="M0 0 C0.99 0.33 1.98 0.66 3 1 C2.67 2.32 2.34 3.64 2 5 C0.68 5 -0.64 5 -2 5 C-1.125 1.125 -1.125 1.125 0 0 Z " fill="#F9FDFB" transform="translate(164,119)"/>
<path d="M0 0 C1.98 0.495 1.98 0.495 4 1 C3.34 2.98 2.68 4.96 2 7 C1.01 6.67 0.02 6.34 -1 6 C-0.67 4.02 -0.34 2.04 0 0 Z " fill="#F55028" transform="translate(138,93)"/>
<path d="M0 0 C3.45925163 1.2491742 6.14693203 2.67527795 9 5 C6.36 5 3.72 5 1 5 C0.67 3.35 0.34 1.7 0 0 Z " fill="#EC5936" transform="translate(32,121)"/>
<path d="M0 0 C0.66 0 1.32 0 2 0 C2.433125 0.9590625 2.433125 0.9590625 2.875 1.9375 C3.82823451 4.15206079 3.82823451 4.15206079 6 5 C6 6.65 6 8.3 6 10 C3.38275905 7.63202009 1.67138271 5.10399646 0 2 C0 1.34 0 0.68 0 0 Z " fill="#370F05" transform="translate(59,112)"/>
<path d="M0 0 C0.33 0 0.66 0 1 0 C1 2.64 1 5.28 1 8 C0.34 8 -0.32 8 -1 8 C-1.33 8.99 -1.66 9.98 -2 11 C-3 9 -3 9 -2.44140625 6.8359375 C-2.15136719 6.02382812 -1.86132812 5.21171875 -1.5625 4.375 C-1.27503906 3.55773437 -0.98757812 2.74046875 -0.69140625 1.8984375 C-0.46324219 1.27195312 -0.23507813 0.64546875 0 0 Z " fill="#EA5E3A" transform="translate(130,109)"/>
<path d="M0 0 C1.2380014 3.57644848 0.74926071 6.33694766 0 10 C-0.99 8.68 -1.98 7.36 -3 6 C-2.01 4.02 -1.02 2.04 0 0 Z " fill="#E15535" transform="translate(76,111)"/>
<path d="M0 0 C0.66 0 1.32 0 2 0 C5 4.38461538 5 4.38461538 5 7 C4.34 7 3.68 7 3 7 C1.04783565 5.04783565 0.15173355 3.46800047 -1 1 C-0.67 0.67 -0.34 0.34 0 0 Z " fill="#232225" transform="translate(66,107)"/>
<path d="M0 0 C1.875 0.1875 1.875 0.1875 4 1 C5.25 3.5625 5.25 3.5625 6 6 C3.5625 5.25 3.5625 5.25 1 4 C0.1875 1.875 0.1875 1.875 0 0 Z " fill="#EE4826" transform="translate(48,100)"/>
</svg>
