<?xml version="1.0" encoding="UTF-8"?>
<svg version="1.1" xmlns="http://www.w3.org/2000/svg" width="322" height="156">
<path d="M0 0 C106.26 0 212.52 0 322 0 C322 51.48 322 102.96 322 156 C215.74 156 109.48 156 0 156 C0 104.52 0 53.04 0 0 Z " fill="#FEFEFE" transform="translate(0,0)"/>
<path d="M0 0 C1.40765625 0.804375 1.40765625 0.804375 2.84375 1.625 C4.27808153 2.34747557 5.71303162 3.0687238 7.1484375 3.7890625 C8.67440215 4.6046643 10.19780276 5.42507946 11.71875 6.25 C12.5025 6.67023437 13.28625 7.09046875 14.09375 7.5234375 C16.01267057 8.5531022 17.92852603 9.58847567 19.84375 10.625 C19.84375 11.285 19.84375 11.945 19.84375 12.625 C17.98254837 13.6911252 16.10404266 14.72707965 14.21875 15.75 C13.17460938 16.33007812 12.13046875 16.91015625 11.0546875 17.5078125 C7.11874335 18.87725292 5.5685767 18.32913459 1.84375 16.625 C0.60625 15.9753125 0.60625 15.9753125 -0.65625 15.3125 C-3.3173199 14.30042352 -3.3173199 14.30042352 -6.34375 16 C-7.271875 16.53625 -8.2 17.0725 -9.15625 17.625 C-9.81625 17.625 -10.47625 17.625 -11.15625 17.625 C-11.15625 18.285 -11.15625 18.945 -11.15625 19.625 C-9.86533447 20.025979 -9.86533447 20.025979 -8.54833984 20.43505859 C-5.16183909 21.62303935 -2.08481054 23.047212 1.1171875 24.6640625 C2.27089844 25.24414062 3.42460938 25.82421875 4.61328125 26.421875 C5.81514883 27.03116191 7.01697119 27.64053802 8.21875 28.25 C9.44382332 28.86755878 10.6690821 29.48474982 11.89453125 30.1015625 C14.87944632 31.60577167 17.86242503 33.11369122 20.84375 34.625 C18.42230221 37.13698547 16.12461319 38.78865664 13.03125 40.4375 C12.19980469 40.89769531 11.36835937 41.35789063 10.51171875 41.83203125 C5.16511757 43.42113819 0.0416714 39.82391121 -4.6484375 37.3671875 C-5.23924103 37.05927277 -5.83004456 36.75135803 -6.43875122 36.43411255 C-8.30511128 35.46020491 -10.16820024 34.48022261 -12.03125 33.5 C-13.30447533 32.8342295 -14.57791093 32.16886096 -15.8515625 31.50390625 C-18.95556879 29.88224259 -22.05667416 28.25511907 -25.15625 26.625 C-22.05346434 23.37446265 -19.30334378 21.42808425 -15.15625 19.625 C-14.49625 19.625 -13.83625 19.625 -13.15625 19.625 C-13.15625 18.965 -13.15625 18.305 -13.15625 17.625 C-14.0225 17.356875 -14.88875 17.08875 -15.78125 16.8125 C-19.07416964 15.65388013 -22.06752875 14.24290161 -25.15625 12.625 C-25.15625 11.965 -25.15625 11.305 -25.15625 10.625 C-21.63132759 8.717195 -18.08425263 6.85490932 -14.53125 5 C-13.53222656 4.45859375 -12.53320312 3.9171875 -11.50390625 3.359375 C-4.06542263 -0.48302051 -4.06542263 -0.48302051 0 0 Z " fill="#4C75FF" transform="translate(73.15625,47.375)"/>
<path d="M0 0 C1.40765625 0.804375 1.40765625 0.804375 2.84375 1.625 C4.27808153 2.34747557 5.71303162 3.0687238 7.1484375 3.7890625 C8.67440215 4.6046643 10.19780276 5.42507946 11.71875 6.25 C12.5025 6.67023437 13.28625 7.09046875 14.09375 7.5234375 C16.01267057 8.5531022 17.92852603 9.58847567 19.84375 10.625 C19.84375 11.285 19.84375 11.945 19.84375 12.625 C17.98254837 13.6911252 16.10404266 14.72707965 14.21875 15.75 C13.17460938 16.33007812 12.13046875 16.91015625 11.0546875 17.5078125 C7.12037721 18.87668445 5.56417017 18.33723883 1.84375 16.625 C1.06 16.17125 0.27625 15.7175 -0.53125 15.25 C-3.73775262 14.486547 -4.30748575 15.04946538 -7.09375 16.625 C-10.81224308 18.68233449 -10.81224308 18.68233449 -14.15625 18.125 C-15.14625 17.63 -16.13625 17.135 -17.15625 16.625 C-17.86523438 16.28210938 -18.57421875 15.93921875 -19.3046875 15.5859375 C-21.27114732 14.6268571 -23.21750577 13.63865815 -25.15625 12.625 C-25.15625 11.965 -25.15625 11.305 -25.15625 10.625 C-21.63132759 8.717195 -18.08425263 6.85490932 -14.53125 5 C-13.53222656 4.45859375 -12.53320312 3.9171875 -11.50390625 3.359375 C-4.06542263 -0.48302051 -4.06542263 -0.48302051 0 0 Z " fill="#3ED5FF" transform="translate(73.15625,47.375)"/>
<path d="M0 0 C0.78375 0.45375 1.5675 0.9075 2.375 1.375 C5.58150262 2.138453 6.15123575 1.57553462 8.9375 0 C12.65599308 -2.05733449 12.65599308 -2.05733449 16 -1.5 C16.99 -1.005 17.98 -0.51 19 0 C19.70898438 0.34289062 20.41796875 0.68578125 21.1484375 1.0390625 C23.11489732 1.9981429 25.06125577 2.98634185 27 4 C27 4.66 27 5.32 27 6 C9.77680934 17.55473683 9.77680934 17.55473683 2.15771484 16.66992188 C-3.05264808 14.99043226 -7.6532425 12.31997956 -12.15087891 9.2277832 C-14.03751027 7.97509385 -15.95740775 6.97324178 -18 6 C-18 5.34 -18 4.68 -18 4 C-16.13879837 2.9338748 -14.26029266 1.89792035 -12.375 0.875 C-11.33085938 0.29492188 -10.28671875 -0.28515625 -9.2109375 -0.8828125 C-5.27662721 -2.25168445 -3.72042017 -1.71223883 0 0 Z " fill="#FD5B1F" transform="translate(66,92)"/>
<path d="M0 0 C2.12438339 -0.08078641 4.2496323 -0.13909141 6.375 -0.1875 C7.55835938 -0.22230469 8.74171875 -0.25710937 9.9609375 -0.29296875 C11.46527344 -0.14794922 11.46527344 -0.14794922 13 0 C15.10209857 3.15314785 15.2434761 3.86103081 15.1953125 7.44921875 C15.18886719 8.29677734 15.18242187 9.14433594 15.17578125 10.01757812 C15.15902344 10.89865234 15.14226562 11.77972656 15.125 12.6875 C15.11597656 13.58017578 15.10695312 14.47285156 15.09765625 15.39257812 C15.07409748 17.59532314 15.04120329 19.79752588 15 22 C12.75106046 22.10823773 10.50062425 22.18569645 8.25 22.25 C6.37054688 22.31960937 6.37054688 22.31960937 4.453125 22.390625 C1 22 1 22 -1.421875 20.171875 C-3 18 -3 18 -3.5 15 C-3 12 -3 12 -1.5625 9.625 C2.20119538 7.23826634 5.65956893 7.66612069 10 8 C9.67 7.01 9.34 6.02 9 5 C6.03 4.67 3.06 4.34 0 4 C0 2.68 0 1.36 0 0 Z " fill="#140A25" transform="translate(150,70)"/>
<path d="M0 0 C1.32 0 2.64 0 4 0 C4 5.94 4 11.88 4 18 C5.32 18 6.64 18 8 18 C8.268125 17.4225 8.53625 16.845 8.8125 16.25 C10.06527536 13.87632037 11.13127765 11.93793429 13 10 C15.6875 9.75 15.6875 9.75 18 10 C17.00928652 12.74351424 16.18493476 14.78864599 14.25 17 C12.70793811 18.9501806 12.70793811 18.9501806 13.5 21.3125 C15.12993766 24.23280497 16.96808959 26.8766509 18.9765625 29.546875 C20 31 20 31 20 32 C17.375 32.5625 17.375 32.5625 14 32 C12.21958531 29.8006642 10.86266266 27.54023006 9.4921875 25.06640625 C8.00982387 22.54591755 8.00982387 22.54591755 4 22 C4 24.97 4 27.94 4 31 C2.68 31 1.36 31 0 31 C0 20.77 0 10.54 0 0 Z " fill="#110723" transform="translate(190,60)"/>
<path d="M0 0 C0.99386719 0.02707031 1.98773438 0.05414063 3.01171875 0.08203125 C4.15060547 0.13423828 4.15060547 0.13423828 5.3125 0.1875 C5.3125 1.5075 5.3125 2.8275 5.3125 4.1875 C2.6725 4.5175 0.0325 4.8475 -2.6875 5.1875 C-3.0175 6.1775 -3.3475 7.1675 -3.6875 8.1875 C-2.45 8.105 -1.2125 8.0225 0.0625 7.9375 C3.1635592 7.94849666 4.12662391 8.06668054 6.8125 9.8125 C8.76812482 12.90890596 8.91274477 14.58603135 8.3125 18.1875 C7 20.5625 7 20.5625 4.3125 22.1875 C0.62176983 22.51674499 -2.99277466 22.41682778 -6.6875 22.1875 C-6.6875 20.5375 -6.6875 18.8875 -6.6875 17.1875 C-3.3875 17.1875 -0.0875 17.1875 3.3125 17.1875 C3.3125 15.8675 3.3125 14.5475 3.3125 13.1875 C2.075 13.27 0.8375 13.3525 -0.4375 13.4375 C-3.5385592 13.42650334 -4.50162391 13.30831946 -7.1875 11.5625 C-9.11954232 8.50343299 -9.21729878 6.7447204 -8.6875 3.1875 C-6.26461557 -0.26914846 -4.04209751 -0.14266226 0 0 Z " fill="#1C132D" transform="translate(266.6875,69.8125)"/>
<path d="M0 0 C0.99386719 0.02707031 1.98773438 0.05414063 3.01171875 0.08203125 C4.15060547 0.13423828 4.15060547 0.13423828 5.3125 0.1875 C5.3125 1.5075 5.3125 2.8275 5.3125 4.1875 C2.3425 4.1875 -0.6275 4.1875 -3.6875 4.1875 C-3.6875 5.5075 -3.6875 6.8275 -3.6875 8.1875 C-2.429375 8.125625 -1.17125 8.06375 0.125 8 C2.64363951 8.02228885 4.04245606 8.05247803 6.3125 9.1875 C7.89745415 12.35740831 8.02390218 15.72813253 7.3125 19.1875 C6.17578125 20.92578125 6.17578125 20.92578125 4.3125 22.1875 C1.39453125 22.48046875 1.39453125 22.48046875 -1.875 22.375 C-2.96167969 22.34792969 -4.04835938 22.32085937 -5.16796875 22.29296875 C-6.41513672 22.24076172 -6.41513672 22.24076172 -7.6875 22.1875 C-7.6875 20.5375 -7.6875 18.8875 -7.6875 17.1875 C-4.3875 16.8575 -1.0875 16.5275 2.3125 16.1875 C2.6425 15.1975 2.9725 14.2075 3.3125 13.1875 C2.075 13.249375 0.8375 13.31125 -0.4375 13.375 C-3.15296097 13.35574141 -4.65042885 13.20325524 -7.1875 12.125 C-9.50096701 9.13677177 -9.1443702 6.84246159 -8.6875 3.1875 C-6.29993741 -0.29038285 -4.02858914 -0.1421855 0 0 Z " fill="#160B27" transform="translate(119.6875,69.8125)"/>
<path d="M0 0 C1.65 0 3.3 0 5 0 C5 1.65 5 3.3 5 5 C7.64 5 10.28 5 13 5 C13 6.32 13 7.64 13 9 C10.36 9 7.72 9 5 9 C5.33 12.96 5.66 16.92 6 21 C8.31 21.33 10.62 21.66 13 22 C13 23.65 13 25.3 13 27 C11.58506449 27.10884119 10.16767057 27.18597617 8.75 27.25 C7.96109375 27.29640625 7.1721875 27.3428125 6.359375 27.390625 C3.08922314 26.84920913 2.06636629 25.54801671 0 23 C-0.45410156 20.43457031 -0.45410156 20.43457031 -0.390625 17.578125 C-0.37773437 16.55332031 -0.36484375 15.52851562 -0.3515625 14.47265625 C-0.31804687 13.40917969 -0.28453125 12.34570312 -0.25 11.25 C-0.23195312 10.17105469 -0.21390625 9.09210938 -0.1953125 7.98046875 C-0.14821415 5.31941212 -0.082456 2.66015746 0 0 Z " fill="#150A25" transform="translate(131,65)"/>
<path d="M0 0 C1.09054688 0.02320312 2.18109375 0.04640625 3.3046875 0.0703125 C4.40039062 0.08835937 5.49609375 0.10640625 6.625 0.125 C7.46804687 0.14820312 8.31109375 0.17140625 9.1796875 0.1953125 C9.1796875 1.5153125 9.1796875 2.8353125 9.1796875 4.1953125 C6.5396875 4.5253125 3.8996875 4.8553125 1.1796875 5.1953125 C1.1796875 8.8253125 1.1796875 12.4553125 1.1796875 16.1953125 C4.1496875 16.5253125 7.1196875 16.8553125 10.1796875 17.1953125 C10.1796875 18.8453125 10.1796875 20.4953125 10.1796875 22.1953125 C8.24287589 22.27638833 6.3050941 22.33453725 4.3671875 22.3828125 C3.28824219 22.41761719 2.20929688 22.45242187 1.09765625 22.48828125 C-1.8203125 22.1953125 -1.8203125 22.1953125 -3.47998047 20.92333984 C-5.80119906 17.93070138 -5.20806393 14.2599314 -5.1328125 10.6328125 C-5.13603516 9.85228516 -5.13925781 9.07175781 -5.14257812 8.26757812 C-5.0674417 0.35093087 -5.0674417 0.35093087 0 0 Z " fill="#150926" transform="translate(174.8203125,69.8046875)"/>
<path d="M0 0 C1.08667969 0.02707031 2.17335937 0.05414063 3.29296875 0.08203125 C4.54013672 0.13423828 4.54013672 0.13423828 5.8125 0.1875 C5.8125 1.5075 5.8125 2.8275 5.8125 4.1875 C1.3575 4.6825 1.3575 4.6825 -3.1875 5.1875 C-3.1875 8.8175 -3.1875 12.4475 -3.1875 16.1875 C-0.2175 16.5175 2.7525 16.8475 5.8125 17.1875 C5.8125 18.8375 5.8125 20.4875 5.8125 22.1875 C4.06388208 22.29603491 2.31330759 22.37333428 0.5625 22.4375 C-0.41203125 22.48390625 -1.3865625 22.5303125 -2.390625 22.578125 C-5.1875 22.1875 -5.1875 22.1875 -7.51953125 20.64453125 C-9.84146862 17.22415981 -9.68511704 14.72498214 -9.625 10.625 C-9.63208984 9.95275391 -9.63917969 9.28050781 -9.64648438 8.58789062 C-9.61057129 5.80600755 -9.46450336 3.66182083 -8.046875 1.234375 C-5.32130633 -0.30018887 -3.09910037 -0.09997098 0 0 Z " fill="#180E27" transform="translate(249.1875,69.8125)"/>
<path d="M0 0 C1.32 0 2.64 0 4 0 C4 1.65 4 3.3 4 5 C6.64 5 9.28 5 12 5 C12 6.32 12 7.64 12 9 C9.36 9 6.72 9 4 9 C4.33 13.29 4.66 17.58 5 22 C7.64 22 10.28 22 13 22 C13 23.65 13 25.3 13 27 C11.39667209 27.08121924 9.79215974 27.13929134 8.1875 27.1875 C6.84751953 27.23970703 6.84751953 27.23970703 5.48046875 27.29296875 C3 27 3 27 1.36328125 25.828125 C-0.52291357 23.29878639 -0.34268156 21.58893852 -0.29296875 18.45703125 C-0.28330078 17.38388672 -0.27363281 16.31074219 -0.26367188 15.20507812 C-0.23853516 14.08552734 -0.21339844 12.96597656 -0.1875 11.8125 C-0.16719727 10.11577148 -0.16719727 10.11577148 -0.14648438 8.38476562 C-0.11109958 5.58936683 -0.06172948 2.79492108 0 0 Z " fill="#0C001E" transform="translate(213,65)"/>
<path d="M0 0 C1.32 0 2.64 0 4 0 C4 6.93 4 13.86 4 21 C2.68 21 1.36 21 0 21 C0 14.07 0 7.14 0 0 Z " fill="#09001C" transform="translate(231,70)"/>
<path d="M0 0 C0.99773437 0.02320312 1.99546875 0.04640625 3.0234375 0.0703125 C4.52777344 0.09738281 4.52777344 0.09738281 6.0625 0.125 C6.83335937 0.14820312 7.60421875 0.17140625 8.3984375 0.1953125 C8.3984375 1.5153125 8.3984375 2.8353125 8.3984375 4.1953125 C5.0984375 4.1953125 1.7984375 4.1953125 -1.6015625 4.1953125 C-1.6015625 5.1853125 -1.6015625 6.1753125 -1.6015625 7.1953125 C-2.2615625 7.1953125 -2.9215625 7.1953125 -3.6015625 7.1953125 C-4.2265625 4.8203125 -4.2265625 4.8203125 -4.6015625 2.1953125 C-2.6015625 0.1953125 -2.6015625 0.1953125 0 0 Z " fill="#0A001C" transform="translate(263.6015625,69.8046875)"/>
<path d="M0 0 C3.3 0 6.6 0 10 0 C10 1.65 10 3.3 10 5 C8.04233719 5.08082094 6.08373272 5.13910778 4.125 5.1875 C2.48917969 5.23970703 2.48917969 5.23970703 0.8203125 5.29296875 C-0.11039063 5.19628906 -1.04109375 5.09960938 -2 5 C-2.66 4.01 -3.32 3.02 -4 2 C-0.04 2.33 3.92 2.66 8 3 C8 2.34 8 1.68 8 1 C5.36 1 2.72 1 0 1 C0 0.67 0 0.34 0 0 Z " fill="#2D2B3A" transform="translate(175,87)"/>
<path d="M0 0 C0.99 0.495 0.99 0.495 2 1 C2 1.99 2 2.98 2 4 C2.66 4 3.32 4 4 4 C4 3.01 4 2.02 4 1 C4.66 1.33 5.32 1.66 6 2 C5.67 2.99 5.34 3.98 5 5 C7.64 5 10.28 5 13 5 C13 5.33 13 5.66 13 6 C12.0925 6.12375 11.185 6.2475 10.25 6.375 C7.41029677 6.92109677 5.47409409 7.57263803 3 9 C1.5 7.875 1.5 7.875 0 6 C-0.1875 2.8125 -0.1875 2.8125 0 0 Z " fill="#312841" transform="translate(258,73)"/>
<path d="M0 0 C3.3 0 6.6 0 10 0 C10 0.33 10 0.66 10 1 C7.36 1 4.72 1 2 1 C2 1.66 2 2.32 2 3 C5.63 3 9.26 3 13 3 C12.67 3.66 12.34 4.32 12 5 C8.04 5 4.08 5 0 5 C0 3.35 0 1.7 0 0 Z " fill="#312F3D" transform="translate(112,87)"/>
<path d="M0 0 C1.134375 0.020625 2.26875 0.04125 3.4375 0.0625 C3.4375 1.7125 3.4375 3.3625 3.4375 5.0625 C1.1275 5.0625 -1.1825 5.0625 -3.5625 5.0625 C-4.125 3.125 -4.125 3.125 -4.5625 1.0625 C-3.5625 0.0625 -3.5625 0.0625 0 0 Z " fill="#F5F4F5" transform="translate(156.5625,81.9375)"/>
<path d="M0 0 C1.98 0 3.96 0 6 0 C6 1.98 6 3.96 6 6 C4.02 6 2.04 6 0 6 C0 4.02 0 2.04 0 0 Z " fill="#575362" transform="translate(230,59)"/>
<path d="M0 0 C2.64 0 5.28 0 8 0 C8 1.65 8 3.3 8 5 C4.7 5 1.4 5 -2 5 C-2.33 4.34 -2.66 3.68 -3 3 C-0.03 3 2.94 3 6 3 C6 2.34 6 1.68 6 1 C4.02 1 2.04 1 0 1 C0 0.67 0 0.34 0 0 Z " fill="#312F3E" transform="translate(218,87)"/>
</svg>
